<svg
          xmlns="http://www.w3.org/2000/svg"
          width="96"
          height="96"
          viewBox="0 0 96 96"
          fill="none"
        >
          <rect width="96" height="96" rx="12" fill="#E7E7E8" />
          <path
            d="M74.5702 55.3456H77.9998L73.5149 50.6849C67.0954 44.0016 58.2137 40.2202 48.8922 40.2202H47.837H45.5506H44.4074C35.1739 40.2202 26.2921 44.0016 19.7847 50.6849L15.2998 55.3456H18.7294C27.9629 55.3456 36.8447 51.5642 43.3521 44.8809L46.6938 41.4514C44.7591 53.2351 27.9629 71.878 27.9629 71.878H46.7817H65.6005C65.6005 71.878 48.9802 53.4989 46.8696 41.7152L49.9475 44.9689C56.367 51.5643 65.2487 55.3456 74.5702 55.3456Z"
            fill="#201B21"
          />
          <path
            d="M43.8797 33.361L46.6058 30.547L49.3319 33.361C54.6082 38.9011 61.995 41.9789 69.6456 41.9789H72.4597L68.7663 38.1097C63.49 32.5695 56.1031 29.4917 48.4525 29.4917H47.5731H45.6385H44.7591C37.1085 29.4917 29.8096 32.5695 24.4454 38.1097L20.752 42.0669H23.566C31.2166 42.0669 38.6034 38.9011 43.8797 33.361Z"
            fill="#201B21"
          />
          <path
            d="M44.4072 23.6877L46.6056 21.4014L48.8041 23.6877C53.1131 28.1726 59.0929 30.7228 65.3365 30.7228H67.6229L64.633 27.557C60.324 23.0722 54.3442 20.522 48.1006 20.522H47.3971H45.8142H45.1107C38.8671 20.522 32.8873 23.0722 28.5783 27.557L25.5884 30.7228H27.8748C34.1184 30.7228 40.0982 28.1726 44.4072 23.6877Z"
            fill="#201B21"
          />
        </svg>