<svg
          xmlns="http://www.w3.org/2000/svg"
          width="96"
          height="96"
          viewBox="0 0 96 96"
          fill="none"
        >
          <rect width="96" height="96" rx="12" fill="#E7E7E8" />
          <path
            d="M39.2289 41.8683C46.5046 38.3886 52.1987 32.4836 55.4675 25.1024C53.3586 22.888 50.617 21.3063 47.6645 20.3573L46.0829 19.8301C45.9774 20.041 45.872 20.3573 45.872 20.5682C43.3413 27.7385 38.1744 33.5381 31.215 36.8069C26.3645 39.1267 22.7793 43.3445 21.0922 48.4059L20.5649 49.9876C20.7758 50.0931 21.0922 50.1985 21.3031 50.1985C23.3065 50.9366 25.31 51.8856 27.208 53.0455C29.8442 48.3005 34.062 44.2935 39.2289 41.8683Z"
            fill="#201B21"
          />
          <path
            d="M69.8084 42.29C65.9069 48.195 60.5292 52.9401 53.8861 56.1035C48.5084 58.6342 44.396 63.3792 42.4979 69.0733L41.9707 70.8659C43.9742 72.6585 46.3994 74.0293 49.0356 74.8729L50.6173 75.4001C50.7227 75.1892 50.8282 74.8728 50.8282 74.6619C53.3589 67.4916 58.5257 61.6921 65.4851 58.4233C70.3357 56.1035 74.0263 51.8856 75.6079 46.8242L76.1352 45.2425C73.9208 44.6099 71.8119 43.5554 69.8084 42.29Z"
            fill="#201B21"
          />
          <path
            d="M37.7526 65.3827C40.3888 59.0559 45.2393 53.889 51.4606 50.9365C57.1547 48.195 61.8997 43.9771 65.1686 38.8103C62.7433 36.4905 60.7398 33.8543 59.2636 30.6909C55.3621 37.8612 49.2462 43.6608 41.7596 47.2459C37.4363 49.2494 33.9566 52.7291 31.8477 56.947C34.1675 59.1613 36.0655 61.9029 37.5417 64.9608C37.5417 64.9608 37.6472 65.1718 37.7526 65.3827Z"
            fill="#201B21"
          />
        </svg>