<svg
          xmlns="http://www.w3.org/2000/svg"
          width="96"
          height="96"
          viewBox="0 0 96 96"
          fill="none"
        >
          <rect width="96" height="96" rx="12" fill="#13131A" />
          <path
            d="M52.9483 62.2002C48.5733 60.5752 44.0733 60.3252 39.9483 61.4502C37.0733 62.2002 34.3233 63.7002 31.8233 65.5752L30.0732 67.0752L29.5732 67.5752L30.6982 68.5752C30.8232 68.5752 30.8232 68.7002 30.9482 68.8252C31.1982 69.0752 31.4483 69.2002 31.8233 69.4502L32.5732 69.9502L33.3232 69.3252C33.4482 69.2002 33.6982 68.9502 33.9482 68.8252C36.1982 66.9502 38.6982 65.7002 41.3232 65.0752C44.6982 64.2002 48.3232 64.3252 51.9482 65.7002C54.9482 66.8252 61.0732 68.2002 68.4482 65.0752L68.6983 64.9502L69.0732 64.5752C69.0732 64.4502 69.1983 64.4502 69.3233 64.3252C69.9483 63.5752 70.5733 62.8252 71.0733 61.9502L73.5733 58.0752L69.5732 60.3252C63.6982 63.5752 58.3233 64.2002 52.9483 62.2002Z"
            fill="white"
          />
          <path
            d="M35.8233 48.7002C39.1983 47.8252 42.8233 47.9502 46.4483 49.3252C50.4483 50.8252 60.6983 52.9502 72.1983 42.5752L74.0733 40.7002L74.1983 40.5752L74.6983 40.0752L74.4482 39.4502C74.3232 38.9502 74.0732 38.3252 73.8232 37.7002L73.1982 35.9502L71.9482 37.2002C71.8232 37.4502 71.5732 37.5752 71.3232 37.8252C65.8232 43.4502 57.3232 49.2002 47.5732 45.7002C43.1982 44.0752 38.6983 43.8252 34.5733 44.9502C30.5733 46.0752 27.0732 48.2002 23.8232 51.2002V51.0752L21.9482 53.0752C21.9482 53.2002 21.8233 53.2002 21.6983 53.3252L21.3232 53.7002L21.4482 54.2002C21.5732 54.8252 21.8232 55.4502 21.9482 56.0752L22.6982 58.0752L23.9483 56.4502C24.0733 56.2002 24.3232 56.0752 24.4482 55.8252C27.0732 53.4502 30.6983 50.0752 35.8233 48.7002Z"
            fill="white"
          />
          <path
            d="M23.6983 46.4502C26.5733 43.4502 29.8233 41.5752 33.3233 40.5752C36.6983 39.7002 40.3233 39.8252 43.9483 41.2002C55.1983 45.3252 64.9483 38.5752 69.1983 34.9502L70.8233 33.3252L71.4483 32.8252L70.9483 32.0752C70.5733 31.7002 70.3233 31.2002 69.9483 30.7002L69.1983 29.7002L68.3233 30.5752C68.1983 30.7002 67.9483 30.9502 67.8233 31.0752C62.5733 36.0752 54.4483 41.2002 45.1983 37.7002C40.8233 36.0752 36.3233 35.8252 32.1983 36.9502C29.5733 37.7002 27.0733 38.9502 24.5733 40.5752L21.9482 42.7002C21.6982 42.9502 21.5732 43.0752 21.3232 43.3252L21.0733 43.5752V43.9502C20.9483 44.8252 20.9482 45.7002 20.8232 46.4502L20.6982 49.5752L22.8233 47.3252C23.0733 47.0752 23.3233 46.7002 23.6983 46.4502Z"
            fill="white"
          />
          <path
            d="M56.5732 70.7001L56.3232 71.4501L56.5732 70.7001C56.1982 70.5751 55.9482 70.4501 55.5732 70.3251C51.1982 68.7001 46.6982 68.4501 42.5732 69.5751C41.6982 69.8251 40.8232 70.0751 39.9482 70.4501L36.9482 71.8251L36.1982 72.2001L38.6982 73.0751C39.4482 73.3251 40.1982 73.5751 40.9482 73.8251L41.3232 73.9501L41.6982 73.8251C42.0732 73.7001 42.4482 73.4501 42.8232 73.4501C43.0732 73.4501 43.3232 73.3251 43.5732 73.2001C46.5732 72.4501 49.8232 72.4501 53.3232 73.5751C53.6982 73.7001 53.9482 73.8251 54.3232 73.9501L54.9482 74.2001L55.3232 74.0751C56.1982 73.8251 57.1982 73.5751 57.9482 73.2001L61.4482 71.9501L57.8232 71.0751C57.4482 70.9501 56.9482 70.8251 56.5732 70.7001Z"
            fill="white"
          />
          <path
            d="M75.6982 44.8252L73.8232 46.7002C73.5732 46.9502 73.3233 47.2002 73.0733 47.4502C67.9483 52.3252 59.6982 57.5752 50.4482 54.0752C46.0732 52.4502 41.5733 52.2002 37.4483 53.3252C33.5733 54.4502 30.0732 56.4502 26.9482 59.4502L25.3232 61.2002L24.8232 61.8252L25.3232 62.5752C25.6982 63.0752 25.9482 63.4502 26.1982 63.9502L26.9482 65.0752L27.8232 63.9502C27.9482 63.8252 28.1982 63.5752 28.3232 63.4502C31.3232 60.2002 34.5732 58.2002 38.3232 57.2002C41.6982 56.3252 45.3232 56.4502 48.9482 57.8252C52.0732 58.9502 55.3232 59.3252 58.5732 58.9502C64.3232 58.3252 70.0733 55.0752 74.3233 51.4502C74.5733 51.2002 74.8232 51.0752 75.0732 50.8252L75.4482 50.4502V50.0752C75.4482 49.3252 75.5733 48.4502 75.5733 47.7002L75.6982 44.8252Z"
            fill="white"
          />
          <path
            d="M28.1982 33.3252L27.8232 32.5752L28.1982 33.3252C28.9482 32.9502 29.8233 32.7002 30.5733 32.4502C33.9483 31.5752 37.5733 31.7002 41.1983 33.0752C43.5733 33.9502 45.9482 34.3252 48.5732 34.3252C53.8232 34.3252 59.0732 32.4502 63.9482 28.8252L65.8232 27.3252L66.4482 26.8252L65.3232 25.9502C64.9482 25.5752 64.4482 25.2002 63.9482 24.9502L63.1982 24.4502L62.5732 24.9502C62.3232 25.0752 62.1982 25.3252 61.9482 25.4502C55.3232 30.4502 48.6983 31.8252 42.4483 29.4502C37.9483 27.8252 33.4482 27.4502 28.9482 28.8252C28.5732 28.9502 28.1982 29.0752 27.6982 29.2002L27.4483 29.3252L27.0732 29.7002C27.0732 29.8252 26.9483 29.8252 26.8233 29.9502C26.3233 30.7002 25.6982 31.3252 25.1982 32.0752L22.8232 35.7002L26.6982 33.7002C27.3232 33.7002 27.8232 33.4502 28.1982 33.3252Z"
            fill="white"
          />
          <path
            d="M38.4483 24.8252L38.8232 24.9502C40.4482 25.5752 42.9483 26.2002 46.0733 26.2002C49.3233 26.2002 52.4483 25.4502 55.5733 24.2002L59.4482 22.3252L56.8233 21.4502C56.0733 21.2002 55.3232 20.9502 54.4482 20.8252H54.0733L53.6983 20.9502C53.3233 21.0752 52.9482 21.3252 52.5732 21.4502C48.8232 22.8252 45.0733 23.0752 41.4483 22.0752C41.0733 21.9502 40.6983 21.8252 40.3233 21.7002L39.9483 21.5752L39.5733 21.7002C38.8233 21.9502 38.0733 22.2002 37.3233 22.5752L34.4482 23.8252L37.4483 24.7002C37.6983 24.5752 38.0733 24.7002 38.4483 24.8252Z"
            fill="white"
          />
        </svg>