<svg width="24" height="24" viewBox="0 0 24 24" fill="none" xmlns="http://www.w3.org/2000/svg">
  <path fill-rule="evenodd" clip-rule="evenodd" d="M9.5 6.00039C9.93043 6.00039 10.3126 6.27582 10.4487 6.68416L11.9156 11.0848L16.3162 12.5517C16.7246 12.6878 17 13.07 17 13.5004C17 13.9308 16.7246 14.313 16.3162 14.4491L11.9156 15.916L10.4487 20.3166C10.3126 20.725 9.93043 21.0004 9.5 21.0004C9.06957 21.0004 8.68743 20.725 8.55132 20.3166L7.08443 15.916L2.68377 14.4491C2.27543 14.313 2 13.9308 2 13.5004C2 13.07 2.27543 12.6878 2.68377 12.5517L7.08443 11.0848L8.55132 6.68416C8.68743 6.27582 9.06957 6.00039 9.5 6.00039ZM9.5 10.1627L8.82368 12.1916C8.72415 12.4902 8.48983 12.7245 8.19123 12.8241L6.16228 13.5004L8.19123 14.1767C8.48983 14.2762 8.72415 14.5106 8.82368 14.8092L9.5 16.8381L10.1763 14.8092C10.2759 14.5106 10.5102 14.2762 10.8088 14.1767L12.8377 13.5004L10.8088 12.8241C10.5102 12.7245 10.2759 12.4902 10.1763 12.1916L9.5 10.1627Z" fill="#FFFFFF"/>
  <path fill-rule="evenodd" clip-rule="evenodd" d="M17.5 2.40039C17.7583 2.40039 17.9875 2.56565 18.0692 2.81065L18.8493 5.15105L21.1897 5.93118C21.4347 6.01285 21.6 6.24213 21.6 6.50039C21.6 6.75865 21.4347 6.98793 21.1897 7.0696L18.8493 7.84973L18.0692 10.1901C17.9875 10.4351 17.7583 10.6004 17.5 10.6004C17.2417 10.6004 17.0125 10.4351 16.9308 10.1901L16.1507 7.84973L13.8103 7.0696C13.5653 6.98793 13.4 6.75865 13.4 6.50039C13.4 6.24213 13.5653 6.01285 13.8103 5.93118L16.1507 5.15105L16.9308 2.81065C17.0125 2.56565 17.2417 2.40039 17.5 2.40039Z" fill="#FFFFFF"/>
</svg>
