<svg width="59" height="18" viewBox="0 0 59 18" fill="none" xmlns="http://www.w3.org/2000/svg">
<path d="M13.7901 13.608C13.7901 14.568 13.5421 15.376 13.0461 16.032C12.5501 16.672 11.8781 17.16 11.0301 17.496C10.1981 17.832 9.28613 18 8.29413 18H0.0621328V0.959999H9.18213C9.98213 0.959999 10.6701 1.176 11.2461 1.608C11.8381 2.024 12.2861 2.568 12.5901 3.24C12.9101 3.896 13.0701 4.584 13.0701 5.304C13.0701 6.12 12.8621 6.896 12.4461 7.632C12.0301 8.368 11.4221 8.912 10.6221 9.264C11.5981 9.552 12.3661 10.072 12.9261 10.824C13.5021 11.576 13.7901 12.504 13.7901 13.608ZM10.4541 12.984C10.4541 12.552 10.3661 12.168 10.1901 11.832C10.0141 11.48 9.77413 11.208 9.47013 11.016C9.18213 10.808 8.84613 10.704 8.46213 10.704H3.37413V15.192H8.29413C8.69413 15.192 9.05413 15.096 9.37413 14.904C9.71013 14.696 9.97413 14.424 10.1661 14.088C10.3581 13.752 10.4541 13.384 10.4541 12.984ZM3.37413 3.792V8.088H7.79013C8.15813 8.088 8.49413 8 8.79813 7.824C9.10213 7.648 9.34213 7.4 9.51813 7.08C9.71013 6.76 9.80613 6.376 9.80613 5.928C9.80613 5.496 9.71813 5.12 9.54213 4.8C9.38213 4.48 9.15813 4.232 8.87013 4.056C8.59813 3.88 8.28613 3.792 7.93413 3.792H3.37413ZM28.2066 15.096V18H16.3746V0.959999H27.9906V3.864H19.6866V7.968H26.8626V10.656H19.6866V15.096H28.2066ZM43.5327 3.864H38.0847V18H34.7967V3.864H29.3487V0.959999H43.5327V3.864ZM48.6863 0.959999H52.0463L58.3103 18H54.9023L53.3183 13.752H47.3663L45.8063 18H42.3983L48.6863 0.959999ZM52.7183 11.424L50.3663 4.392L47.9183 11.424H52.7183Z" fill="url(#paint0_linear_412_3205)"/>
<defs>
<linearGradient id="paint0_linear_412_3205" x1="59.2861" y1="10" x2="-1.71387" y2="10" gradientUnits="userSpaceOnUse">
<stop stop-color="#9667FA"/>
<stop offset="1" stop-color="#4075FF"/>
</linearGradient>
</defs>
</svg>
