<svg width="1280" height="369" viewBox="0 0 1280 369" fill="none" xmlns="http://www.w3.org/2000/svg">
<g clip-path="url(#clip0_77_262)">
<path d="M12.1637 356.165C7.95172 351.764 4.72192 346.551 2.64427 340.828C0.566628 335.105 -0.302205 329.024 0.0944362 322.961C0.491078 316.898 2.15319 310.967 4.96746 305.584C7.78173 300.182 11.6726 295.441 16.4134 291.645C30.3336 281.597 40.703 281.124 52.6211 278.272C72.8687 273.38 90.2832 258.1 87.1289 235.7C81.9348 198.963 36.0755 213.809 36.0755 185.345C36.0755 156.881 81.8593 171.727 87.1289 135.028C90.2832 112.797 72.8687 97.4794 52.6211 92.4553C40.703 89.6032 30.3336 89.0932 16.4512 79.045C11.7104 75.2486 7.80061 70.4889 4.98635 65.1059C2.17208 59.6851 0.509965 53.7733 0.113324 47.6914C-0.283318 41.6285 0.585516 35.5278 2.66316 29.8048C4.74081 24.0818 7.98949 18.8688 12.2014 14.468C16.6023 10.256 21.8153 7.00734 27.5194 4.92969C33.2234 2.85204 39.3242 1.98321 45.3871 2.37985C51.4501 2.77649 57.3619 4.43861 62.7638 7.25288C68.1468 10.0671 72.9065 13.9769 76.7029 18.7177C86.7512 32.6379 87.2611 43.0262 90.1132 54.9443C95.0051 75.2108 110.285 92.6252 132.667 89.471C169.347 84.2769 154.539 38.3798 182.965 38.3798C211.391 38.3798 196.583 84.2202 233.301 89.471C255.513 92.6252 270.793 75.2108 275.855 54.9443C278.707 43.0262 279.179 32.6379 289.208 18.7177C293.005 13.9769 297.764 10.0671 303.147 7.25288C308.53 4.43861 314.461 2.77649 320.524 2.37985C326.587 1.98321 332.669 2.85204 338.392 4.92969C344.096 7.00734 349.328 10.256 353.71 14.468C357.922 18.8499 361.17 24.0818 363.248 29.8048C365.326 35.5278 366.195 41.6096 365.798 47.6914C365.401 53.7544 363.739 59.6851 360.925 65.087C358.111 70.4889 354.201 75.2297 349.46 79.0261C335.54 89.0744 325.17 89.5843 313.29 92.4364C292.986 97.2905 275.59 112.608 278.745 135.009C283.939 171.708 329.798 156.843 329.798 185.326C329.798 213.809 283.976 198.944 278.745 235.681C275.59 257.911 293.005 273.192 313.29 278.046C325.152 280.936 335.54 281.408 349.46 291.456C354.201 295.252 358.111 300.012 360.925 305.395C363.739 310.797 365.401 316.709 365.798 322.791C366.195 328.854 365.326 334.954 363.248 340.677C361.17 346.4 357.922 351.613 353.71 356.014C349.328 360.226 344.096 363.475 338.392 365.552C332.669 367.63 326.587 368.499 320.524 368.102C314.461 367.706 308.53 366.043 303.147 363.229C297.764 360.415 293.005 356.505 289.208 351.745C279.16 337.825 278.707 327.437 275.855 315.519C270.963 295.252 255.683 277.838 233.301 280.992C196.583 286.186 211.429 332.083 182.965 332.083C154.501 332.083 169.347 286.243 132.667 280.992C110.455 277.838 95.1751 295.252 90.1132 315.557C87.2611 327.437 86.7512 337.825 76.7029 351.745C72.9065 356.505 68.1657 360.415 62.7638 363.229C57.3808 366.043 51.4501 367.706 45.3871 368.102C39.3242 368.499 33.2423 367.63 27.5194 365.552C21.7964 363.475 16.5834 360.226 12.2014 356.014" fill="#D7F9C0"/>
<path d="M695.199 205.555H688.456H688.419H548.857C540.377 205.555 533.502 212.43 533.502 220.91C533.502 245.956 553.806 266.26 578.851 266.26H696.351C715.069 266.26 729.839 249.299 726.118 229.901C723.361 215.49 709.894 205.555 695.218 205.555H695.199Z" fill="#D7F9C0"/>
<path d="M548.839 163.076H688.419C705.72 163.076 719.64 148.589 718.714 131.099C717.846 114.686 703.132 102.39 686.7 102.39H578.832C553.787 102.39 533.483 122.694 533.483 147.74C533.483 156.22 540.358 163.095 548.839 163.095V163.076Z" fill="#D7F9C0"/>
<path d="M1121.49 102.39H1035.22C1007.42 102.39 984.88 124.926 984.88 152.726V215.924C984.88 243.724 1007.42 266.26 1035.22 266.26H1121.49C1149.29 266.26 1171.83 243.724 1171.83 215.924V152.726C1171.83 124.926 1149.29 102.39 1121.49 102.39Z" fill="#D7F9C0"/>
<path d="M1117.74 0H587.615C497.993 0 425.351 72.661 425.351 162.264V205.914C425.351 295.536 498.012 368.178 587.615 368.178H1117.74C1207.36 368.178 1280.02 295.517 1280.02 205.914V162.264C1280.02 72.6421 1207.36 0 1117.74 0ZM693.726 308.719H583.875C529.158 308.719 484.79 264.352 484.79 209.634V158.978C484.79 104.26 529.139 59.8929 583.875 59.8929H685.982C723.569 59.8929 756.83 87.3556 760.815 124.734C762.515 140.713 759.021 155.748 751.843 168.44C747.858 175.486 748.274 184.249 753.317 190.577C763.573 203.42 769.56 219.815 769.145 237.626C768.2 277.592 733.711 308.7 693.745 308.7L693.726 308.719ZM876.729 284.222C876.729 297.5 865.963 308.266 852.685 308.266C839.407 308.266 828.622 297.5 828.622 284.222V83.5214C828.622 70.2433 839.388 59.4773 852.685 59.4773C865.982 59.4773 876.729 70.2433 876.729 83.5214V284.222ZM1220.54 201.626C1220.54 260.782 1172.59 308.719 1113.45 308.719H1043.3C984.143 308.719 936.206 260.763 936.206 201.626V167.005C936.206 107.849 984.162 59.9118 1043.3 59.9118H1113.45C1172.6 59.9118 1220.54 107.868 1220.54 167.005V201.626Z" fill="#D7F9C0"/>
</g>
<defs>
<clipPath id="clip0_77_262">
<rect width="1280" height="368.178" fill="white"/>
</clipPath>
</defs>
</svg>
