<svg width="172" height="50" viewBox="0 0 172 50" fill="none" xmlns="http://www.w3.org/2000/svg">
<mask id="mask0_1576_31444" style="mask-type:luminance" maskUnits="userSpaceOnUse" x="0" y="0" width="172" height="50">
<path d="M172 0.207825H0V49.7921H172V0.207825Z" fill="white"/>
</mask>
<g mask="url(#mask0_1576_31444)">
<path d="M6.61981 46.8049C6.08727 46.2473 5.67892 45.5867 5.41623 44.8615C5.15355 44.1363 5.0437 43.3657 5.09385 42.5975C5.144 41.8292 5.35414 41.0776 5.70996 40.3955C6.06578 39.711 6.55772 39.1102 7.15711 38.6292C8.91709 37.356 10.2281 37.296 11.735 36.9346C14.295 36.3148 16.4967 34.3785 16.0979 31.5401C15.4412 26.8849 9.64306 28.7662 9.64306 25.1593C9.64306 21.5525 15.4317 23.4337 16.0979 18.7834C16.4967 15.9663 14.295 14.0254 11.735 13.3887C10.2281 13.0273 8.91709 12.9627 7.16189 11.6894C6.5625 11.2084 6.06817 10.6052 5.71235 9.92312C5.35653 9.23622 5.14638 8.4871 5.09624 7.71643C5.04609 6.94816 5.15594 6.1751 5.41862 5.44991C5.68131 4.72471 6.09205 4.06415 6.62457 3.50649C7.181 2.97277 7.84009 2.56111 8.56128 2.29784C9.28246 2.03457 10.0538 1.92447 10.8204 1.97473C11.5869 2.02499 12.3344 2.23561 13.0174 2.59222C13.698 2.94883 14.2997 3.44426 14.7797 4.045C16.0502 5.80891 16.1146 7.12527 16.4752 8.63548C17.0937 11.2036 19.0256 13.4103 21.8555 13.0106C26.4931 12.3524 24.6208 6.5365 28.2148 6.5365C31.8088 6.5365 29.9366 12.3452 34.579 13.0106C37.3873 13.4103 39.3192 11.2036 39.9592 8.63548C40.3198 7.12527 40.3795 5.80891 41.6475 4.045C42.1276 3.44426 42.7293 2.94883 43.4099 2.59222C44.0905 2.23561 44.8403 2.02499 45.6069 1.97473C46.3735 1.92447 47.1424 2.03457 47.866 2.29784C48.5872 2.56111 49.2487 2.97277 49.8027 3.50649C50.3353 4.06175 50.7459 4.72471 51.0087 5.44991C51.2714 6.1751 51.3813 6.94576 51.3311 7.71643C51.2809 8.4847 51.0707 9.23622 50.715 9.92072C50.3592 10.6052 49.8648 11.206 49.2654 11.687C47.5054 12.9603 46.1943 13.0249 44.6923 13.3863C42.1252 14.0014 39.9257 15.9424 40.3246 18.781C40.9813 23.4313 46.7795 21.5477 46.7795 25.1569C46.7795 28.7662 40.986 26.8825 40.3246 31.5377C39.9257 34.3546 42.1276 36.2909 44.6923 36.906C46.192 37.2722 47.5054 37.332 49.2654 38.6053C49.8648 39.0863 50.3592 39.6895 50.715 40.3716C51.0707 41.0561 51.2809 41.8052 51.3311 42.5759C51.3813 43.3442 51.2714 44.1172 51.0087 44.8424C50.7459 45.5675 50.3353 46.2281 49.8027 46.7858C49.2487 47.3195 48.5872 47.7312 47.866 47.9944C47.1424 48.2577 46.3735 48.3678 45.6069 48.3175C44.8403 48.2674 44.0905 48.0566 43.4099 47.7C42.7293 47.3435 42.1276 46.848 41.6475 46.2448C40.3771 44.481 40.3198 43.1646 39.9592 41.6544C39.3407 39.0863 37.4088 36.8797 34.579 37.2793C29.9366 37.9375 31.8136 43.7534 28.2148 43.7534C24.616 43.7534 26.4931 37.9447 21.8555 37.2793C19.0471 36.8797 17.1152 39.0863 16.4752 41.6593C16.1146 43.1646 16.0502 44.481 14.7797 46.2448C14.2997 46.848 13.7003 47.3435 13.0174 47.7C12.3368 48.0566 11.5869 48.2674 10.8204 48.3175C10.0538 48.3678 9.28485 48.2577 8.56128 47.9944C7.8377 47.7312 7.17861 47.3195 6.62457 46.7858" fill="white"/>
<path d="M92.9752 27.7203H92.1226H92.118H74.4726C73.4005 27.7203 72.5312 28.5914 72.5312 29.666C72.5312 32.8397 75.0984 35.4126 78.2649 35.4126H93.1208C95.4874 35.4126 97.3548 33.2633 96.8844 30.8053C96.5358 28.9792 94.8331 27.7203 92.9776 27.7203H92.9752Z" fill="white"/>
<path d="M74.4728 22.3373H92.1204C94.3078 22.3373 96.0677 20.5015 95.9507 18.2853C95.8409 16.2055 93.9806 14.6474 91.903 14.6474H78.2649C75.0984 14.6474 72.5312 17.2202 72.5312 20.394C72.5312 21.4685 73.4005 22.3397 74.4728 22.3397V22.3373Z" fill="white"/>
<path d="M146.872 14.6474H135.964C132.449 14.6474 129.6 17.5031 129.6 21.0258V29.034C129.6 32.5567 132.449 35.4123 135.964 35.4123H146.872C150.387 35.4123 153.236 32.5567 153.236 29.034V21.0258C153.236 17.5031 150.387 14.6474 146.872 14.6474Z" fill="white"/>
<path d="M146.401 1.6731H79.375C68.0438 1.6731 58.8594 10.8804 58.8594 22.2345V27.7657C58.8594 39.1222 68.0462 48.3271 79.375 48.3271H146.401C157.732 48.3271 166.918 39.1198 166.918 27.7657V22.2345C166.918 10.878 157.732 1.6731 146.401 1.6731ZM92.791 40.7927H78.9021C71.9841 40.7927 66.3745 35.1707 66.3745 28.2371V21.8181C66.3745 14.8845 71.9817 9.26248 78.9021 9.26248H91.8119C96.5641 9.26248 100.769 12.7424 101.273 17.4789C101.488 19.5037 101.046 21.4088 100.139 23.0171C99.6351 23.91 99.6877 25.0204 100.325 25.8222C101.622 27.4496 102.379 29.5271 102.326 31.7841C102.207 36.8484 97.8464 40.7903 92.7934 40.7903L92.791 40.7927ZM115.929 37.6885C115.929 39.3711 114.568 40.7353 112.889 40.7353C111.21 40.7353 109.846 39.3711 109.846 37.6885V12.2566C109.846 10.574 111.208 9.20981 112.889 9.20981C114.57 9.20981 115.929 10.574 115.929 12.2566V37.6885ZM159.398 27.2223C159.398 34.7183 153.335 40.7927 145.858 40.7927H136.989C129.509 40.7927 123.449 34.7159 123.449 27.2223V22.8353C123.449 15.3393 129.512 9.26487 136.989 9.26487H145.858C153.337 9.26487 159.398 15.3417 159.398 22.8353V27.2223Z" fill="white"/>
</g>
</svg>
