<svg width="172" height="56" viewBox="0 0 172 56" fill="none" xmlns="http://www.w3.org/2000/svg">
<g clip-path="url(#clip0_1576_32213)">
<path d="M68.5965 24.1748C67.0937 24.1748 65.7931 23.8497 64.6947 23.1993C63.6108 22.5345 62.7725 21.6168 62.1797 20.4461C61.6019 19.261 61.3125 17.8953 61.3125 16.3488C61.3125 14.788 61.6019 13.4222 62.1797 12.2516C62.7725 11.0664 63.6108 10.1415 64.6947 9.47669C65.7931 8.81189 67.0937 8.47949 68.5965 8.47949C70.4032 8.47949 71.8776 8.92751 73.0193 9.82358C74.161 10.7052 74.8833 11.9553 75.1872 13.5739H72.3255C72.1232 12.7213 71.711 12.0492 71.0899 11.5578C70.4682 11.0664 69.6299 10.8208 68.5749 10.8208C67.6214 10.8208 66.7975 11.0448 66.1037 11.4928C65.4242 11.9264 64.897 12.5623 64.5214 13.4005C64.1598 14.2243 63.9792 15.2071 63.9792 16.3488C63.9792 17.4906 64.1598 18.4733 64.5214 19.2971C64.897 20.1065 65.4242 20.7351 66.1037 21.1832C66.7975 21.6168 67.6214 21.8336 68.5749 21.8336C69.6299 21.8336 70.4682 21.6095 71.0899 21.1615C71.711 20.699 72.1232 20.0631 72.3255 19.2538H75.1872C74.8978 20.7858 74.1755 21.9925 73.0193 22.8741C71.8776 23.7413 70.4032 24.1748 68.5965 24.1748Z" fill="white"/>
<path d="M88.3987 23.9147V8.73962H91V23.9147H88.3987ZM78.8164 23.9147V8.73962H81.4181V23.9147H78.8164ZM81.028 17.2377V15.1131H88.8971V17.2377H81.028Z" fill="white"/>
<path d="M95.1641 23.9147V8.73962H104.963V10.8424H97.7657V15.1999H104.313V17.2594H97.7657V21.8118H104.963V23.9147H95.1641Z" fill="white"/>
<path d="M115.522 24.1748C114.019 24.1748 112.718 23.8497 111.62 23.1993C110.536 22.5345 109.698 21.6168 109.105 20.4461C108.527 19.261 108.238 17.8953 108.238 16.3488C108.238 14.788 108.527 13.4222 109.105 12.2516C109.698 11.0664 110.536 10.1415 111.62 9.47669C112.718 8.81189 114.019 8.47949 115.522 8.47949C117.329 8.47949 118.803 8.92751 119.945 9.82358C121.086 10.7052 121.809 11.9553 122.112 13.5739H119.251C119.049 12.7213 118.637 12.0492 118.015 11.5578C117.394 11.0664 116.556 10.8208 115.501 10.8208C114.547 10.8208 113.723 11.0448 113.029 11.4928C112.35 11.9264 111.822 12.5623 111.447 13.4005C111.085 14.2243 110.905 15.2071 110.905 16.3488C110.905 17.4906 111.085 18.4733 111.447 19.2971C111.822 20.1065 112.35 20.7351 113.029 21.1832C113.723 21.6168 114.547 21.8336 115.501 21.8336C116.556 21.8336 117.394 21.6095 118.015 21.1615C118.637 20.699 119.049 20.0631 119.251 19.2538H122.112C121.824 20.7858 121.101 21.9925 119.945 22.8741C118.803 23.7413 117.329 24.1748 115.522 24.1748Z" fill="white"/>
<path d="M125.742 23.9147V8.73962H128.343V15.0048L134.067 8.73962H137.297L131.682 14.7663L137.427 23.9147H134.262L129.839 16.7607L128.343 18.3867V23.9147H125.742Z" fill="white"/>
<path d="M140.545 23.9147V8.73962H150.343V10.8424H143.146V15.1999H149.693V17.2594H143.146V21.8118H150.343V23.9147H140.545Z" fill="white"/>
<path d="M154.162 23.9147V8.73962H159.603C160.803 8.73962 161.793 8.94918 162.573 9.3683C163.368 9.77298 163.953 10.3222 164.33 11.0159C164.72 11.6951 164.915 12.4684 164.915 13.3355C164.915 14.1448 164.727 14.8964 164.351 15.5901C163.975 16.2838 163.39 16.8402 162.595 17.2594C161.8 17.6785 160.781 17.888 159.538 17.888H156.763V23.9147H154.162ZM162.075 23.9147L158.888 17.216H161.706L165.045 23.9147H162.075ZM156.763 15.9586H159.43C160.398 15.9586 161.106 15.7274 161.554 15.2649C162.017 14.788 162.248 14.1665 162.248 13.4006C162.248 12.649 162.024 12.0492 161.576 11.6012C161.128 11.1387 160.413 10.9075 159.43 10.9075H156.763V15.9586Z" fill="white"/>
<path d="M61.3125 46.9643V31.7892H63.9142L71.2199 42.7586V31.7892H73.8211V46.9643H71.2199L63.9142 36.0166V46.9643H61.3125Z" fill="white"/>
<path d="M77.957 46.9643V31.7892H87.7556V33.8921H80.5583V38.2495H87.1051V40.309H80.5583V44.8615H87.7556V46.9643H77.957Z" fill="white"/>
<path d="M95.1063 46.9643V33.8921H90.6406V31.7892H102.152V33.8921H97.6858V46.9643H95.1063Z" fill="white"/>
<path d="M108.437 46.9643L104.404 31.7892H107.179L110.019 43.9943L113.314 31.7892H116.197L119.384 44.016L122.246 31.7892H125.042L120.902 46.9643H117.823L114.702 35.4746L111.493 46.9643H108.437Z" fill="white"/>
<path d="M134.487 47.2243C133.027 47.2243 131.733 46.8992 130.606 46.2487C129.493 45.5841 128.619 44.6664 127.983 43.4958C127.347 42.3106 127.029 40.9376 127.029 39.3768C127.029 37.8304 127.347 36.4718 127.983 35.3012C128.619 34.1161 129.493 33.1911 130.606 32.5263C131.733 31.8615 133.027 31.5291 134.487 31.5291C135.975 31.5291 137.283 31.8615 138.411 32.5263C139.538 33.1911 140.412 34.1161 141.034 35.3012C141.655 36.4718 141.966 37.8304 141.966 39.3768C141.966 40.9376 141.655 42.3106 141.034 43.4958C140.412 44.6664 139.538 45.5841 138.411 46.2487C137.283 46.8992 135.975 47.2243 134.487 47.2243ZM134.508 44.8832C135.477 44.8832 136.322 44.6664 137.045 44.2328C137.767 43.7848 138.324 43.1489 138.714 42.3251C139.104 41.5013 139.3 40.5185 139.3 39.3768C139.3 38.235 139.104 37.2523 138.714 36.4285C138.324 35.6047 137.767 34.976 137.045 34.5425C136.322 34.0944 135.477 33.8704 134.508 33.8704C133.54 33.8704 132.694 34.0944 131.972 34.5425C131.249 34.976 130.686 35.6047 130.281 36.4285C129.891 37.2523 129.696 38.235 129.696 39.3768C129.696 40.5185 129.891 41.5013 130.281 42.3251C130.686 43.1489 131.249 43.7848 131.972 44.2328C132.694 44.6664 133.54 44.8832 134.508 44.8832Z" fill="white"/>
<path d="M145.592 46.9643V31.7892H151.033C152.233 31.7892 153.223 31.9988 154.003 32.4179C154.798 32.8226 155.383 33.3718 155.759 34.0655C156.149 34.7448 156.344 35.518 156.344 36.3851C156.344 37.1945 156.156 37.946 155.78 38.6397C155.405 39.3335 154.819 39.8899 154.025 40.309C153.23 40.7281 152.211 40.9377 150.968 40.9377H148.193V46.9643H145.592ZM153.504 46.9643L150.318 40.2656H153.136L156.474 46.9643H153.504ZM148.193 39.0082H150.86C151.828 39.0082 152.536 38.777 152.984 38.3145C153.446 37.8376 153.678 37.2161 153.678 36.4502C153.678 35.6987 153.454 35.0989 153.006 34.6509C152.558 34.1884 151.842 33.9571 150.86 33.9571H148.193V39.0082Z" fill="white"/>
<path d="M160.119 46.9643V31.7892H162.721V38.0544L168.444 31.7892H171.674L166.059 37.8159L171.804 46.9643H168.639L164.216 39.8104L162.721 41.4363V46.9643H160.119Z" fill="white"/>
<path d="M165.579 23.9145L167.173 20.5652L167.969 18.8905H165.114L164.279 20.5652L162.609 23.9145H165.579Z" fill="white"/>
<path d="M52.766 19.1484C54.9158 25.3959 54.6901 32.1918 52.1426 38.2888C46.4138 51.9884 30.613 58.4725 16.9191 52.7409C10.2871 49.9668 5.12772 44.7729 2.39752 38.1167C-0.332666 31.4606 -0.311168 24.1378 2.47276 17.5032C8.20182 3.80379 24.0025 -2.6803 37.6964 3.05107L36.4495 6.02965C24.4002 0.986492 10.4913 6.69634 5.45018 18.7505C3.0102 24.5894 2.9887 31.0305 5.38567 36.8909C7.7934 42.7513 12.3294 47.3213 18.1659 49.7623C30.2153 54.8054 44.1242 49.0955 49.1653 37.0414C51.4117 31.6757 51.6054 25.6862 49.7134 20.1914L52.766 19.1376V19.1484Z" fill="white"/>
<path d="M41.9511 40.906C40.2161 42.8934 38.0651 44.5132 35.5947 45.6514C30.9857 47.7787 25.829 47.9873 21.0599 46.2338C16.2909 44.4808 12.5055 40.9795 10.3769 36.372C8.24829 31.7645 8.03891 26.6096 9.7902 21.8532L12.8162 22.9624C11.3581 26.919 11.536 31.1953 13.2999 35.0186C15.0638 38.8419 18.2214 41.7529 22.1691 43.2092C26.1168 44.6655 30.4053 44.4901 34.2298 42.7274C38.0543 40.9646 40.966 37.8086 42.4223 33.8626C43.8786 29.9166 43.7026 25.6297 41.9386 21.8064C40.1747 17.9831 37.0171 15.0721 33.0694 13.6158C29.4284 12.2787 25.4468 12.3224 21.8356 13.7407L20.6481 10.7387C24.9885 9.02275 29.7903 8.97012 34.1786 10.591C38.937 12.3423 42.7331 15.8455 44.8617 20.453C46.9902 25.0606 47.1997 30.2154 45.4463 34.9823C44.6323 37.1967 43.4417 39.1923 41.9368 40.9254L41.9511 40.906Z" fill="white"/>
<path fill-rule="evenodd" clip-rule="evenodd" d="M27.4994 20.3549C23.1248 20.3549 19.5785 23.9012 19.5785 28.2758C19.5785 32.6504 23.1248 36.1967 27.4994 36.1967C31.874 36.1967 35.4203 32.6504 35.4203 28.2758C35.4203 23.9012 31.874 20.3549 27.4994 20.3549ZM16.4102 28.2758C16.4102 22.1514 21.375 17.1866 27.4994 17.1866C33.6238 17.1866 38.5886 22.1514 38.5886 28.2758C38.5886 34.4002 33.6238 39.3651 27.4994 39.3651C21.375 39.3651 16.4102 34.4002 16.4102 28.2758Z" fill="white"/>
</g>
<defs>
<clipPath id="clip0_1576_32213">
<rect width="172" height="54.6247" fill="white" transform="translate(0 0.687683)"/>
</clipPath>
</defs>
</svg>
