<svg width="18" height="18" viewBox="0 0 18 18" fill="none" xmlns="http://www.w3.org/2000/svg">
<path d="M17.5091 5.72727C18.1636 5.07273 18.1636 4.09091 17.5091 3.43636L14.5636 0.490909C13.9091 -0.163636 12.9273 -0.163636 12.2727 0.490909L0.23964 12.524C0.0862007 12.6774 0 12.8855 0 13.1025V17.1818C0 17.6337 0.366312 18 0.818182 18H4.89746C5.11446 18 5.32256 17.9138 5.476 17.7604L17.5091 5.72727ZM13.4182 1.63636L16.3636 4.58182L13.9091 7.03636L10.9636 4.09091L13.4182 1.63636ZM1.96364 16.3636C1.78289 16.3636 1.63636 16.2171 1.63636 16.0364V13.7571C1.63636 13.5401 1.72256 13.332 1.876 13.1785L9.81818 5.23636L12.7636 8.18182L4.82146 16.124C4.66802 16.2774 4.45991 16.3636 4.24292 16.3636H1.96364Z" fill="white"/>
</svg>
