<svg width="52" height="56" viewBox="0 0 52 56" fill="none" xmlns="http://www.w3.org/2000/svg">
<g clip-path="url(#clip0_1576_31475)">
<path d="M7.3136 22.5806C7.86519 23.7596 9.23036 26.0902 9.23036 26.0902L25.0127 0L9.60958 10.756C8.69178 11.3683 7.93877 12.1971 7.41702 13.1692C6.71548 14.6358 6.34275 16.2379 6.32489 17.8635C6.30703 19.4891 6.64446 21.099 7.3136 22.5806Z" fill="white"/>
<path d="M1.05859 31.1721C1.2325 33.6677 1.93762 36.0975 3.12672 38.2984C4.31582 40.4995 5.96147 42.421 7.95345 43.9345L24.9907 55.8143C24.9907 55.8143 14.3312 40.4526 5.3403 25.1667C4.43007 23.5516 3.81814 21.786 3.53385 19.9542C3.408 19.1246 3.408 18.2808 3.53385 17.4513C3.29943 17.8857 2.84436 18.7751 2.84436 18.7751C1.93272 20.6344 1.31184 22.6225 1.00343 24.6703C0.825912 26.8348 0.844373 29.011 1.05859 31.1721Z" fill="white"/>
<path d="M44.5232 33.2329C43.9716 32.0539 42.6065 29.7235 42.6065 29.7235L26.8242 55.8136L42.2272 45.0645C43.1451 44.4523 43.8981 43.6234 44.4198 42.6513C45.1225 41.1838 45.4957 39.5804 45.5135 37.9537C45.5314 36.3267 45.1935 34.7155 44.5232 33.2329Z" fill="white"/>
<path d="M50.7778 24.6422C50.6038 22.1466 49.8987 19.7168 48.7097 17.5159C47.5205 15.3149 45.8749 13.3933 43.8829 11.8799L26.8457 0C26.8457 0 37.4982 15.3618 46.4961 30.6476C47.4038 32.2631 48.0135 34.0288 48.2956 35.8603C48.4215 36.6897 48.4215 37.5336 48.2956 38.363C48.53 37.9287 48.9851 37.0393 48.9851 37.0393C49.8967 35.1799 50.5175 33.1918 50.826 31.1442C51.0059 28.9797 50.9897 26.8037 50.7778 24.6422Z" fill="white"/>
<g style="mix-blend-mode:color">
<path d="M7.41565 13.1692C7.93742 12.1971 8.69042 11.3683 9.60823 10.756L25.0114 0L9.22901 26.0971C9.22901 26.0971 7.85003 23.7667 7.31223 22.5875C6.64205 21.1049 6.30406 19.494 6.32192 17.867C6.3398 16.24 6.71308 14.6367 7.41565 13.1692ZM1.05859 31.1717C1.2325 33.6673 1.93762 36.0971 3.12672 38.298C4.31582 40.4992 5.96147 42.4207 7.95345 43.9341L24.9907 55.814C24.9907 55.814 14.3312 40.4523 5.3403 25.1663C4.43007 23.5513 3.81814 21.7857 3.53385 19.9537C3.40798 19.1243 3.40798 18.2804 3.53385 17.4509C3.29943 17.8853 2.84436 18.7747 2.84436 18.7747C1.93272 20.634 1.31184 22.6221 1.00343 24.6698C0.825912 26.8344 0.844373 29.0104 1.05859 31.1717ZM44.4962 33.2402C43.9446 32.0612 42.5796 29.7306 42.5796 29.7306L26.8248 55.814L42.2279 45.0649C43.1457 44.4527 43.8986 43.6238 44.4205 42.6517C45.123 41.1842 45.4962 39.5808 45.5141 37.9539C45.5319 36.3271 45.1941 34.7159 44.5237 33.2333L44.4962 33.2402ZM50.75 24.6491C50.576 22.1535 49.8709 19.7239 48.6817 17.5228C47.4927 15.3217 45.8471 13.4002 43.8551 11.8868L26.8454 0C26.8454 0 37.4979 15.3618 46.4958 30.6476C47.4036 32.2631 48.0132 34.0288 48.2953 35.8603C48.4212 36.6897 48.4212 37.5336 48.2953 38.363C48.5297 37.9287 48.9848 37.0393 48.9848 37.0393C49.8964 35.1799 50.5174 33.1918 50.8257 31.1442C51.0056 28.9797 50.9894 26.8037 50.7775 24.6422L50.75 24.6491Z" fill="white"/>
</g>
</g>
<defs>
<clipPath id="clip0_1576_31475">
<rect width="50.2326" height="56" fill="white" transform="translate(0.882812)"/>
</clipPath>
</defs>
</svg>
