<svg width="172" height="54" viewBox="0 0 172 54" fill="none" xmlns="http://www.w3.org/2000/svg">
<g clip-path="url(#clip0_1576_31412)">
<mask id="mask0_1576_31412" style="mask-type:luminance" maskUnits="userSpaceOnUse" x="0" y="0" width="172" height="54">
<path d="M171.992 0.384888H0V53.6151H171.992V0.384888Z" fill="white"/>
</mask>
<g mask="url(#mask0_1576_31412)">
<path d="M37.3773 3.80861C37.1271 1.53227 33.4999 0.681763 33.0997 0.581704C32.6995 0.481645 29.3224 -0.318829 25.245 2.83303C21.1677 5.9849 19.4416 13.2141 19.4416 13.2141L19.0664 14.7651H18.5411C15.3013 14.7651 12.1938 16.0504 9.90043 18.339C7.60716 20.6275 6.31549 23.7324 6.30886 26.9724V27.4475C6.31496 29.8504 7.02716 32.1986 8.35697 34.1999C9.68675 36.2012 11.5755 37.7677 13.7883 38.7043C13.6882 39.3046 13.5882 39.7549 13.5381 40.005C13.0378 42.4815 12.1122 45.8084 11.0366 48.1098C9.96102 50.4111 8.7353 51.4367 7.48456 51.7869C7.06728 51.9119 6.62331 51.9172 6.20318 51.8022C5.78305 51.6872 5.40366 51.4566 5.10815 51.1366C4.78296 50.8364 3.55723 48.9103 3.55723 48.9103C3.32597 48.5803 3.00567 48.3226 2.63365 48.1676C2.26162 48.0127 1.8532 47.9666 1.456 48.0348C1.28089 48.0598 0.00513328 48.435 0.105192 50.161C0.355341 52.4373 3.98249 53.3129 4.38272 53.3879C4.78296 53.463 8.15996 54.2884 12.2373 51.1366C16.3148 47.9847 18.0408 40.7554 18.0408 40.7554L18.2909 39.6548H18.9914C22.2312 39.6548 25.3387 38.3695 27.6321 36.0809C29.9253 33.7924 31.217 30.6875 31.2235 27.4475V26.9724C31.2217 24.5423 30.4945 22.1682 29.1354 20.1539C27.7761 18.1397 25.8467 16.5768 23.5941 15.6656L23.9443 13.9646C24.4446 11.5132 25.3701 8.16119 26.4458 5.88484C27.5214 3.6085 28.7471 2.53286 29.9979 2.18265C30.4151 2.05771 30.8591 2.05244 31.2792 2.16742C31.6994 2.2824 32.0788 2.51302 32.3743 2.83303C32.6995 3.13321 33.9252 5.05935 33.9252 5.05935C34.1564 5.38942 34.4768 5.64697 34.8487 5.80198C35.2208 5.95699 35.6292 6.00308 36.0265 5.93487C36.2265 5.90985 37.5023 5.53463 37.3773 3.80861ZM9.06049 27.4475V26.9724C9.07327 24.4791 10.0625 22.0901 11.8162 20.3178C13.5698 18.5455 15.9481 17.531 18.441 17.4917L16.815 24.4709C16.765 24.646 15.6394 29.5239 15.6394 29.5239L14.3386 35.9526C12.753 35.1685 11.4184 33.9565 10.4856 32.4534C9.55288 30.9504 9.05923 29.2164 9.06049 27.4475ZM28.472 26.9724V27.4475C28.472 28.6926 28.2268 29.9254 27.7503 31.0756C27.2739 32.2259 26.5755 33.271 25.6951 34.1514C24.8148 35.0317 23.7697 35.73 22.6194 36.2066C21.4692 36.683 20.2364 36.9282 18.9914 36.9282H18.9163L21.743 24.4709C22.1682 22.5447 22.6185 20.3184 23.0188 18.3922C24.6467 19.1595 26.0234 20.3731 26.9887 21.892C27.9541 23.4109 28.4684 25.1726 28.472 26.9724Z" fill="white"/>
<path d="M54.0371 23.9205V8.61145H65.0186V11.0879H56.9388V15.1903H64.218V17.6668H56.9388V23.9205H54.0371Z" fill="white"/>
<path d="M67.8203 10.3875V7.78595H70.5469V10.3875H67.8203ZM67.8203 23.9205V12.1886H70.5469V23.9205H67.8203Z" fill="white"/>
<path d="M73.873 23.9205V7.78595H76.5996V23.9205H73.873Z" fill="white"/>
<path d="M85.0053 24.1956C83.9261 24.23 82.8543 24.0071 81.8783 23.5452C81.0497 23.0914 80.3911 22.3802 80.0023 21.519C79.577 20.6185 79.377 19.4428 79.377 18.067C79.377 16.6911 79.577 15.4905 80.0023 14.59C80.3846 13.7308 81.0456 13.0256 81.8783 12.5888C82.8482 12.1068 83.9229 11.8747 85.0053 11.9134C85.9878 11.8829 86.9615 12.107 87.8319 12.5637C88.6156 13.0022 89.2316 13.6885 89.583 14.5149C89.9581 15.3904 90.1583 16.516 90.1583 17.9169V18.7174H82.1536C82.1761 19.3485 82.2942 19.9727 82.5038 20.5685C82.674 21.0314 82.9901 21.4264 83.4043 21.6941C83.9078 21.9466 84.4673 22.0672 85.0302 22.0443C85.351 22.0414 85.6702 21.9994 85.9808 21.9192C86.2663 21.8334 86.5304 21.6886 86.7563 21.4941C86.9903 21.3112 87.1716 21.0695 87.2816 20.7936C87.4179 20.4867 87.4862 20.1539 87.4817 19.8181H90.1583C90.1784 20.4907 90.0414 21.1588 89.7581 21.7692C89.5136 22.3068 89.1345 22.772 88.6574 23.12C88.1725 23.4897 87.6202 23.7615 87.0315 23.9205C86.3718 24.1045 85.6901 24.197 85.0053 24.1956ZM82.2036 16.8162H87.3066C87.3171 16.3943 87.2666 15.973 87.1565 15.5655C87.0547 15.2538 86.8934 14.965 86.6812 14.715C86.4905 14.4897 86.2384 14.3246 85.9558 14.2398C85.65 14.1352 85.3284 14.0845 85.0053 14.0896C84.4997 14.0796 83.9973 14.1732 83.5294 14.3648C83.1422 14.5633 82.8273 14.8782 82.6289 15.2653C82.4004 15.7546 82.2567 16.2789 82.2036 16.8162Z" fill="white"/>
<path d="M97.8121 24.1956C96.7571 24.2308 95.7094 24.0074 94.7604 23.5452C93.9458 23.0887 93.304 22.3767 92.9343 21.519C92.534 20.6186 92.334 19.4428 92.334 18.0671C92.334 16.6912 92.534 15.4905 92.9593 14.59C93.3151 13.7298 93.9613 13.0216 94.7853 12.5888C95.7201 12.1089 96.7622 11.8764 97.8121 11.9134C98.5239 11.9041 99.2327 12.0054 99.9134 12.2136C100.488 12.3883 101.018 12.6872 101.464 13.089C101.916 13.4894 102.26 13.9969 102.465 14.565C102.707 15.2125 102.826 15.8998 102.815 16.5911H100.038C100.057 16.1198 99.9713 15.6502 99.7883 15.2154C99.644 14.866 99.3772 14.5814 99.0379 14.4149C98.7169 14.2193 98.3554 14.1002 97.981 14.0667C97.6068 14.0331 97.2297 14.0861 96.8792 14.2215C96.5285 14.3569 96.2138 14.5711 95.9592 14.8475C95.7046 15.124 95.5169 15.4552 95.4108 15.8158C95.2011 16.4956 95.1081 17.2061 95.1356 17.9169V18.2171C95.1114 18.9278 95.2043 19.6378 95.4108 20.3184C95.5536 20.8219 95.862 21.2625 96.2863 21.5691C96.7559 21.8685 97.3058 22.0169 97.8622 21.9943C98.3067 22.0106 98.7473 21.907 99.1379 21.6941C99.4734 21.503 99.7435 21.2154 99.9134 20.8687C100.094 20.442 100.18 19.981 100.164 19.5179H102.815C102.824 20.1928 102.705 20.8633 102.465 21.4941C102.254 22.0527 101.921 22.5569 101.489 22.9699C101.038 23.3848 100.5 23.6925 99.9134 23.8705C99.237 24.0995 98.5261 24.2095 97.8121 24.1956Z" fill="white"/>
<path d="M110.795 24.1956C109.684 24.2263 108.581 24.004 107.568 23.5453C106.72 23.1016 106.043 22.389 105.642 21.5191C105.178 20.429 104.956 19.2512 104.992 18.067C104.992 16.6411 105.217 15.4905 105.642 14.59C106.036 13.7216 106.716 13.0149 107.568 12.5887C108.575 12.1101 109.681 11.8786 110.795 11.9134C112.096 11.9134 113.172 12.1385 114.023 12.5887C114.875 13.0149 115.555 13.7216 115.949 14.59C116.374 15.4905 116.599 16.6411 116.599 18.067C116.634 19.2512 116.412 20.429 115.949 21.5191C115.549 22.389 114.871 23.1016 114.023 23.5453C113.011 24.0091 111.907 24.2317 110.795 24.1956ZM110.795 21.9693C111.399 21.9893 111.997 21.8422 112.521 21.5441C112.98 21.2565 113.317 20.8119 113.471 20.2934C113.69 19.6235 113.791 18.9213 113.772 18.2171V17.8919C113.791 17.1878 113.69 16.4856 113.471 15.8157C113.31 15.3012 112.974 14.859 112.521 14.5649C111.997 14.2668 111.399 14.1197 110.795 14.1397C110.191 14.1129 109.592 14.2605 109.069 14.5649C108.609 14.8562 108.264 15.2984 108.094 15.8157C107.876 16.4856 107.775 17.1878 107.794 17.8919V18.2171C107.775 18.9213 107.876 19.6235 108.094 20.2934C108.259 20.8137 108.605 21.2576 109.069 21.5441C109.592 21.8485 110.191 21.9961 110.795 21.9693Z" fill="white"/>
<path d="M119.35 10.3875V7.78595H122.077V10.3875H119.35ZM119.35 23.9205V12.1886H122.077V23.9205H119.35Z" fill="white"/>
<path d="M125.43 23.9205V12.1885H127.705L127.93 13.7394H128.081C128.366 13.3921 128.684 13.0737 129.032 12.7889C129.41 12.5117 129.833 12.3002 130.283 12.1635C130.779 11.9873 131.305 11.9025 131.833 11.9134C132.513 11.9077 133.186 12.044 133.809 12.3136C134.389 12.5889 134.864 13.0454 135.16 13.6143C135.519 14.3535 135.691 15.1695 135.66 15.9908V23.9205H132.909V16.4911C132.92 16.143 132.869 15.7958 132.759 15.4655C132.678 15.2071 132.531 14.9742 132.333 14.79C132.146 14.6073 131.913 14.4778 131.658 14.4149C131.364 14.3418 131.061 14.3081 130.757 14.3147C130.291 14.303 129.831 14.4245 129.432 14.665C129.039 14.8986 128.719 15.2363 128.506 15.6406C128.259 16.0832 128.138 16.5849 128.156 17.0915V23.9205H125.43Z" fill="white"/>
<path d="M54.0371 45.1831V29.8741H65.0186V32.3505H56.9388V36.4529H64.218V38.9294H56.9388V45.1831H54.0371Z" fill="white"/>
<path d="M72.3718 45.4582C71.2608 45.4889 70.1573 45.2664 69.1449 44.8079C68.2963 44.3641 67.619 43.6516 67.2188 42.7816C66.7685 41.8811 66.5684 40.7054 66.5684 39.3296C66.5684 37.9538 66.7685 36.753 67.2188 35.8526C67.6121 34.9841 68.2921 34.2775 69.1449 33.8513C70.1515 33.3727 71.2577 33.1411 72.3718 33.176C73.6726 33.176 74.7482 33.4011 75.5988 33.8513C76.4514 34.2775 77.1316 34.9841 77.5249 35.8526C77.9501 36.753 78.1752 37.9037 78.1752 39.3296C78.211 40.5137 77.9891 41.6916 77.5249 42.7816C77.1247 43.6516 76.4472 44.3641 75.5988 44.8079C74.5879 45.2716 73.4833 45.4942 72.3718 45.4582ZM72.3718 43.2319C72.9754 43.2519 73.5727 43.1047 74.0979 42.8066C74.5487 42.511 74.8844 42.0694 75.0484 41.5558C75.2661 40.886 75.3676 40.1838 75.3486 39.4796V39.1545C75.3676 38.4503 75.2661 37.7481 75.0484 37.0783C74.8774 36.5684 74.5434 36.1289 74.0979 35.8275C73.5727 35.5294 72.9754 35.3822 72.3718 35.4022C71.7676 35.3755 71.1684 35.5231 70.6458 35.8275C70.1856 36.1188 69.8407 36.561 69.6702 37.0783C69.4525 37.7481 69.351 38.4503 69.37 39.1545V39.4796C69.351 40.1838 69.4525 40.886 69.6702 41.5558C69.8349 42.0763 70.1811 42.5202 70.6458 42.8066C71.1684 43.111 71.7676 43.2586 72.3718 43.2319Z" fill="white"/>
<path d="M84.6539 45.4582C83.5282 45.4582 82.6026 45.158 81.9022 44.5326C81.2018 43.9073 80.8516 42.8567 80.8516 41.3807V33.4511H83.5782V40.8805C83.5733 41.2265 83.6154 41.5715 83.7033 41.9061C83.7935 42.1598 83.9387 42.3905 84.1286 42.5815C84.3296 42.7593 84.5695 42.8878 84.829 42.9567C85.1146 43.0312 85.4094 43.0649 85.7045 43.0568C86.1715 43.0759 86.6335 42.9538 87.0303 42.7066C87.4364 42.471 87.7663 42.1236 87.9808 41.706C88.2167 41.2682 88.3373 40.7775 88.331 40.2801V33.4511H91.0326V45.183H88.7813L88.5561 43.6322H88.406C88.1346 43.9914 87.8147 44.3112 87.4554 44.5826C87.0748 44.8631 86.6529 45.0826 86.2047 45.2331C85.7031 45.3903 85.1795 45.4664 84.6539 45.4582Z" fill="white"/>
<path d="M94.3848 45.1831V33.4511H96.6611L96.8863 35.002H97.0364C97.3212 34.6547 97.6396 34.3363 97.9869 34.0515C98.8095 33.4804 99.7872 33.1749 100.789 33.176C101.468 33.1704 102.141 33.3066 102.765 33.5762C103.344 33.8515 103.819 34.308 104.116 34.8769C104.475 35.6161 104.647 36.4321 104.616 37.2534V45.1831H101.864V37.7537C101.875 37.4056 101.824 37.0584 101.714 36.7281C101.634 36.4697 101.487 36.2369 101.289 36.0527C101.101 35.8699 100.868 35.7404 100.613 35.6775C100.319 35.6044 100.016 35.5707 99.713 35.5774C99.2467 35.5656 98.7868 35.6871 98.3871 35.9276C98.0006 36.1688 97.682 36.5046 97.4616 36.9032C97.2256 37.35 97.1052 37.8487 97.1114 38.3541V45.1831H94.3848Z" fill="white"/>
<path d="M111.947 45.4582C111.076 45.4759 110.219 45.2507 109.47 44.8078C108.735 44.3301 108.174 43.6284 107.869 42.8066C107.469 41.8811 107.294 40.7304 107.294 39.3045C107.256 38.1191 107.452 36.9378 107.869 35.8275C108.181 35.01 108.741 34.3104 109.47 33.8263C110.169 33.3969 110.975 33.1715 111.796 33.176C112.293 33.1804 112.787 33.2392 113.272 33.3511C113.693 33.4623 114.093 33.6487 114.448 33.9013C114.788 34.1502 115.084 34.4546 115.324 34.8019H115.448V29.0485H118.175V45.183H115.924L115.698 43.6322H115.549C115.184 44.2195 114.664 44.6953 114.047 45.0079C113.39 45.3123 112.671 45.4662 111.947 45.4582ZM112.796 43.1068C113.339 43.1378 113.875 42.9883 114.322 42.6815C114.731 42.3761 115.03 41.9459 115.173 41.4558C115.38 40.827 115.473 40.1662 115.448 39.5047V39.2045C115.454 38.6836 115.403 38.1636 115.298 37.6536C115.222 37.2333 115.06 36.8332 114.823 36.4779C114.611 36.1794 114.327 35.9386 113.997 35.7775C113.625 35.5957 113.211 35.5098 112.796 35.5273C112.235 35.4938 111.676 35.6335 111.196 35.9275C110.783 36.2184 110.483 36.6424 110.345 37.1283C110.169 37.7975 110.085 38.4876 110.095 39.1794V39.5047C110.088 40.1882 110.172 40.8695 110.345 41.5309C110.496 42.0102 110.794 42.4301 111.196 42.7316C111.684 43.0045 112.238 43.1346 112.796 43.1068Z" fill="white"/>
<path d="M124.528 45.4582C124.15 45.4483 123.773 45.4065 123.403 45.3331C122.971 45.2543 122.557 45.1021 122.176 44.8828C121.768 44.6416 121.432 44.2963 121.201 43.8822C120.932 43.348 120.802 42.7541 120.826 42.1562C120.794 41.4479 120.987 40.7479 121.376 40.1551C121.749 39.6061 122.269 39.1728 122.877 38.9043C123.617 38.5746 124.4 38.3555 125.204 38.2539C126.182 38.128 127.169 38.0695 128.155 38.0788V37.1033C128.16 36.7965 128.109 36.4913 128.005 36.2028C127.884 35.9323 127.683 35.7053 127.429 35.5524C127.037 35.3798 126.608 35.3027 126.178 35.3273C125.745 35.3118 125.311 35.3798 124.903 35.5273C124.636 35.6162 124.407 35.7925 124.252 36.0277C124.131 36.2039 124.07 36.4143 124.078 36.628V36.9282H121.427C121.427 36.8531 121.401 36.7781 121.401 36.703V36.4279C121.402 35.7971 121.623 35.1865 122.027 34.7018C122.46 34.1785 123.032 33.7882 123.678 33.5762C124.472 33.2937 125.311 33.1581 126.154 33.176C127.059 33.1439 127.962 33.2972 128.806 33.6262C129.442 33.8802 129.984 34.326 130.356 34.902C130.72 35.505 130.902 36.1996 130.882 36.9032V42.4314C130.867 42.5483 130.883 42.6668 130.927 42.7761C130.97 42.8855 131.041 42.982 131.132 43.0568C131.285 43.166 131.468 43.2269 131.657 43.2319H132.358V45.108L131.732 45.3081C131.388 45.3926 131.036 45.4347 130.682 45.4332C130.322 45.4372 129.964 45.3691 129.631 45.2331C129.34 45.1112 129.076 44.9325 128.855 44.7077C128.65 44.4604 128.505 44.1696 128.431 43.8573H128.28C128.016 44.1698 127.714 44.4472 127.379 44.6828C127.005 44.9384 126.59 45.1326 126.154 45.2581C125.623 45.3955 125.076 45.4628 124.528 45.4582ZM125.353 43.2319C125.763 43.2348 126.168 43.1671 126.554 43.0318C126.877 42.9101 127.17 42.7195 127.412 42.4733C127.653 42.2271 127.839 41.9311 127.955 41.606C128.086 41.2451 128.154 40.8642 128.155 40.4803V39.955C127.394 39.951 126.633 40.0011 125.879 40.105C125.294 40.1767 124.73 40.3729 124.228 40.6804C124.034 40.8126 123.876 40.9924 123.771 41.2025C123.666 41.4127 123.617 41.6463 123.628 41.8811C123.617 42.1265 123.678 42.3697 123.802 42.5815C123.944 42.8024 124.156 42.9698 124.403 43.0568C124.706 43.1746 125.028 43.234 125.353 43.2319Z" fill="white"/>
<path d="M137.486 45.4582C136.879 45.4898 136.275 45.3324 135.761 45.008C135.357 44.7453 135.05 44.3592 134.885 43.9073C134.715 43.46 134.631 42.9849 134.635 42.5065V35.6775H133.209V33.4511H134.685L135.185 30.1743H137.337V33.4511H139.387V35.6775H137.337V42.2313C137.32 42.3666 137.335 42.5038 137.38 42.6324C137.424 42.7612 137.497 42.8782 137.594 42.9745C137.69 43.0708 137.807 43.144 137.935 43.1886C138.064 43.2332 138.202 43.248 138.337 43.232H139.387V45.108L138.837 45.2581L138.137 45.4082L137.486 45.4582Z" fill="white"/>
<path d="M141.838 31.65V29.0485H144.539V31.65H141.838ZM141.838 45.183V33.4511H144.539V45.183H141.838Z" fill="white"/>
<path d="M153.119 45.4582C152.016 45.4913 150.92 45.2686 149.918 44.8079C149.056 44.3733 148.369 43.6588 147.967 42.7816C147.502 41.6916 147.281 40.5137 147.316 39.3296C147.316 37.9037 147.541 36.753 147.967 35.8526C148.363 34.9777 149.053 34.2694 149.918 33.8513C150.915 33.37 152.014 33.1383 153.119 33.176C154.42 33.176 155.496 33.4011 156.346 33.8513C157.199 34.2775 157.879 34.9841 158.273 35.8526C158.697 36.753 158.923 37.9037 158.923 39.3296C158.959 40.5137 158.737 41.6916 158.273 42.7816C157.872 43.6515 157.195 44.3641 156.346 44.8079C155.336 45.2716 154.232 45.4942 153.119 45.4582ZM153.119 43.2319C153.724 43.2586 154.323 43.111 154.846 42.8066C155.304 42.5138 155.649 42.0723 155.821 41.5558C156.039 40.886 156.14 40.1838 156.121 39.4796V39.1545C156.14 38.4503 156.039 37.7481 155.821 37.0783C155.642 36.5656 155.3 36.1261 154.846 35.8275C154.313 35.5491 153.72 35.4038 153.119 35.4038C152.518 35.4038 151.926 35.5491 151.394 35.8275C150.941 36.1216 150.605 36.5637 150.443 37.0783C150.225 37.7481 150.124 38.4503 150.143 39.1545V39.4796C150.124 40.1838 150.225 40.886 150.443 41.5558C150.598 42.0745 150.936 42.5191 151.394 42.8066C151.916 43.111 152.515 43.2586 153.119 43.2319Z" fill="white"/>
<path d="M161.699 45.1831V33.4512H163.976L164.176 35.002H164.351C164.622 34.6428 164.943 34.323 165.301 34.0515C165.677 33.7694 166.101 33.5576 166.552 33.4261C167.05 33.2483 167.576 33.1635 168.103 33.176C168.782 33.1732 169.455 33.3094 170.08 33.5762C170.646 33.8601 171.111 34.3151 171.405 34.8771C171.755 35.4773 171.905 36.2778 171.905 37.2534V45.1831H169.154V37.7537C169.159 37.4077 169.117 37.0627 169.028 36.7281C168.939 36.4744 168.793 36.2437 168.604 36.0527C168.403 35.8749 168.162 35.7464 167.903 35.6775C167.618 35.603 167.323 35.5693 167.028 35.5774C166.561 35.5583 166.098 35.6804 165.701 35.9276C165.302 36.1607 164.974 36.4979 164.751 36.9032C164.515 37.35 164.395 37.8487 164.401 38.3541V45.1831H161.699Z" fill="white"/>
</g>
</g>
<defs>
<clipPath id="clip0_1576_31412">
<rect width="172" height="53.2302" fill="white" transform="translate(0 0.384888)"/>
</clipPath>
</defs>
</svg>
