<svg width="24" height="24" viewBox="0 0 24 24" fill="none" xmlns="http://www.w3.org/2000/svg">
<path d="M12 0C5.372 0 0 5.508 0 12.305C0 17.74 3.438 22.352 8.207 23.979C8.807 24.092 9.027 23.712 9.027 23.386C9.027 23.094 9.016 22.32 9.01 21.293C5.672 22.037 4.967 19.643 4.967 19.643C4.422 18.223 3.635 17.845 3.635 17.845C2.545 17.081 3.718 17.096 3.718 17.096C4.922 17.183 5.555 18.364 5.555 18.364C6.626 20.244 8.364 19.702 9.048 19.386C9.157 18.591 9.468 18.049 9.81 17.741C7.145 17.431 4.344 16.376 4.344 11.661C4.344 10.318 4.811 9.219 5.579 8.359C5.456 8.048 5.044 6.797 5.696 5.103C5.696 5.103 6.704 4.773 8.996 6.364C9.954 6.091 10.98 5.955 12.001 5.95C13.02 5.955 14.047 6.091 15.005 6.364C17.295 4.772 18.301 5.103 18.301 5.103C18.956 6.797 18.545 8.048 18.421 8.359C19.191 9.219 19.654 10.318 19.654 11.661C19.654 16.387 16.849 17.428 14.176 17.732C14.606 18.112 14.99 18.862 14.99 20.011C14.99 21.656 14.975 22.982 14.975 23.386C14.975 23.715 15.191 24.098 15.8 23.977C20.565 22.347 24 17.738 24 12.305C24 5.508 18.627 0 12 0Z" fill="#3E75C3"/>
</svg>
