<svg width="24" height="24" viewBox="0 0 24 24" fill="none" xmlns="http://www.w3.org/2000/svg">
<path d="M20.745 19.3447H3.30834C2.81767 19.3447 2.3691 19.0598 2.14966 18.6088C1.93023 18.1577 1.97758 17.6179 2.27199 17.2145L3.99924 14.8445C4.11136 14.6909 4.17197 14.504 4.17197 14.312V6.91811C4.17197 5.44745 5.33195 4.25525 6.76285 4.25525H17.1264C18.5573 4.25525 19.7173 5.44745 19.7173 6.91811V13.1314C19.7173 14.6021 18.5573 15.7943 17.1264 15.7943H8.49011C8.01314 15.7943 7.62648 15.3969 7.62648 14.9067C7.62648 14.4164 8.01314 14.019 8.49011 14.019H17.1264C17.6034 14.019 17.99 13.6216 17.99 13.1314V6.91811C17.99 6.42789 17.6034 6.03049 17.1264 6.03049H6.76285C6.28589 6.03049 5.89923 6.42789 5.89923 6.91811V14.312C5.89923 14.8881 5.7174 15.4487 5.38105 15.9097L4.17197 17.5695H20.0454L19.8036 17.0813C19.6548 16.7961 19.6688 16.4502 19.8402 16.1787C20.0116 15.9072 20.3132 15.7531 20.6273 15.7765C20.9413 15.8 21.2181 15.9972 21.3495 16.2913L21.8763 17.4186C22.0748 17.8268 22.0559 18.3111 21.8265 18.7017C21.597 19.0924 21.1889 19.335 20.745 19.3447Z" fill="#4E52F5"/>
</svg>
