<svg width="22" height="20" viewBox="0 0 22 20" fill="none" xmlns="http://www.w3.org/2000/svg">
<path fill-rule="evenodd" clip-rule="evenodd" d="M2.488 5H2.458C0.967 5 0 3.898 0 2.502C0 1.079 0.995 0 2.516 0C4.036 0 4.97 1.076 5 2.498C5 3.894 4.036 5 2.488 5ZM22 20H16.984V12.824C16.984 10.946 16.199 9.664 14.474 9.664C13.154 9.664 12.419 10.529 12.078 11.363C11.9653 11.6271 11.9673 11.9812 11.9694 12.3467C11.9697 12.3963 11.97 12.4461 11.97 12.496V20H7C7 20 7.064 7.289 7 6.133H11.97V8.31C12.263 7.358 13.85 6 16.386 6C19.53 6 22 7.995 22 12.29V20ZM5 6H1V20H5V6Z" fill="#0077B5"/>
</svg>
