<svg width="233" height="60" viewBox="0 0 233 60" fill="none" xmlns="http://www.w3.org/2000/svg">
<path d="M131.351 18.976C129.615 18.0166 127.609 17.5368 125.337 17.5368C123.064 17.5368 121.057 18.0166 119.321 18.976C117.585 19.9367 116.233 21.2989 115.264 23.0639C114.297 24.8289 113.812 26.8885 113.812 29.2414V29.845C113.812 32.2292 114.297 34.2971 115.264 36.0453C116.232 37.7947 117.584 39.1497 119.321 40.1091C121.057 41.0686 123.061 41.5496 125.337 41.5496C127.612 41.5496 129.615 41.0686 131.351 40.1091C133.088 39.1497 134.439 37.7947 135.408 36.0453C136.376 34.2959 136.86 32.2292 136.86 29.845V29.2414C136.86 26.8885 136.376 24.8289 135.408 23.0639C134.441 21.2989 133.088 19.9367 131.351 18.976ZM133.219 29.7524C133.219 32.353 132.504 34.421 131.076 35.9527C129.647 37.4857 127.734 38.2516 125.337 38.2516C122.94 38.2516 121.065 37.4845 119.622 35.9527C118.176 34.4198 117.455 32.353 117.455 29.7524V29.334C117.455 26.7334 118.176 24.6654 119.622 23.1336C121.065 21.6007 122.971 20.8348 125.337 20.8348C127.703 20.8348 129.647 21.6007 131.076 23.1336C132.504 24.6666 133.219 26.7334 133.219 29.334V29.7524Z" fill="white"/>
<path d="M154.868 28.9865C153.592 28.5068 152.156 28.1268 150.559 27.8491L148.668 27.5233C147.255 27.2756 146.126 26.8969 145.28 26.3859C144.434 25.8749 144.013 25.0778 144.013 23.9933C144.013 22.9088 144.458 22.0347 145.349 21.4612C146.24 20.8889 147.454 20.6016 148.99 20.6016C150.527 20.6016 151.817 20.9346 152.862 21.6007C153.906 22.2668 154.569 23.4198 154.844 25.061L158.255 24.1785C157.794 22.0732 156.772 20.4393 155.19 19.2778C153.607 18.1164 151.54 17.5368 148.99 17.5368C146.441 17.5368 144.335 18.1104 142.768 19.255C141.202 20.4008 140.417 21.995 140.417 24.039C140.417 25.4024 140.771 26.5314 141.478 27.4295C142.185 28.3276 143.138 29.0394 144.336 29.5661C145.534 30.0927 146.855 30.4798 148.299 30.7275L150.19 31.0521C151.818 31.3623 153.101 31.7567 154.039 32.2364C154.975 32.7161 155.444 33.5445 155.444 34.7216C155.444 35.8987 154.953 36.7811 153.97 37.4616C152.985 38.1434 151.649 38.4836 149.959 38.4836C148.822 38.4836 147.754 38.3057 146.756 37.9498C145.757 37.5939 144.919 36.9903 144.243 36.1379C143.566 35.2867 143.106 34.118 142.86 32.6307L139.403 33.4207C139.802 36.2389 140.963 38.2985 142.884 39.5982C144.804 40.8991 147.162 41.5496 149.959 41.5496C152.756 41.5496 154.93 40.946 156.574 39.7376C158.217 38.5293 159.041 36.8112 159.041 34.5821C159.041 33.1261 158.663 31.9502 157.912 31.0521C157.159 30.154 156.143 29.465 154.869 28.9853L154.868 28.9865Z" fill="white"/>
<path d="M183.507 18.0249H179.911V21.6475H179.358C178.621 20.1927 177.613 19.1154 176.339 18.4193C175.064 17.7219 173.643 17.3744 172.075 17.3744C170.63 17.3744 169.264 17.6378 167.973 18.1644C166.682 18.691 165.553 19.4581 164.584 20.4632C163.617 21.4696 162.855 22.7007 162.303 24.1555C161.75 25.6115 161.474 27.284 161.474 29.1716V29.9146C161.474 31.8347 161.75 33.5228 162.303 34.9776C162.857 36.4336 163.617 37.6648 164.584 38.6699C165.553 39.6762 166.682 40.4349 167.973 40.9459C169.264 41.4568 170.661 41.713 172.168 41.713C173.675 41.713 174.986 41.3414 176.293 40.5984C177.599 39.8554 178.621 38.7108 179.358 37.1622H179.911V37.4411C179.911 38.4943 180.241 39.3612 180.903 40.0417C181.563 40.7235 182.416 41.0637 183.461 41.0637H185.904V37.7201H184.751C183.921 37.7201 183.507 37.2548 183.507 36.3266V18.0249ZM179.911 29.8232C179.911 31.0929 179.727 32.2471 179.358 33.2835C178.989 34.3211 178.482 35.2108 177.837 35.9539C177.191 36.6969 176.415 37.2704 175.509 37.6732C174.602 38.076 173.612 38.2767 172.536 38.2767C170.353 38.2767 168.579 37.5421 167.212 36.0705C165.843 34.6001 165.161 32.5477 165.161 29.9158V29.1728C165.161 27.9344 165.345 26.797 165.714 25.7594C166.083 24.7218 166.597 23.8393 167.258 23.1119C167.919 22.3845 168.695 21.8194 169.586 21.4166C170.477 21.0139 171.459 20.8131 172.536 20.8131C173.612 20.8131 174.556 21.0223 175.462 21.4395C176.368 21.8579 177.152 22.4374 177.813 23.1816C178.473 23.9247 178.988 24.8156 179.357 25.852C179.725 26.8896 179.911 28.0282 179.911 29.2666V29.8244L179.911 29.8232Z" fill="white"/>
<path d="M110.141 36.3267V25.5275C110.141 23.9164 109.809 22.5289 109.149 21.3674C108.489 20.206 107.588 19.3187 106.451 18.6995C105.314 18.0803 103.995 17.7689 102.488 17.7689C100.583 17.7689 99.099 18.1572 98.0396 18.9304C96.9789 19.707 96.189 20.6484 95.6665 21.7642H95.022C94.5304 20.6496 93.7405 19.707 92.6489 18.9304C91.5569 18.1572 90.1349 17.7689 88.3833 17.7689C86.6317 17.7689 85.2204 18.1116 84.2359 18.7921C83.2515 19.4726 82.5452 20.2144 82.1145 21.0224H81.4703V18.1885H77.9217V40.9027H81.562V27.2468C81.562 25.2016 82.0917 23.641 83.1525 22.5529C84.2132 21.472 85.5709 20.931 87.2308 20.931C88.7986 20.931 90.0205 21.3698 90.8973 22.2536C91.7708 23.1336 92.2096 24.3372 92.2096 25.8521V40.9039H95.85V27.248C95.85 25.2028 96.3797 23.6422 97.4404 22.5541C98.5012 21.4732 99.8589 20.9322 101.519 20.9322C103.087 20.9322 104.308 21.371 105.185 22.2548C106.059 23.1348 106.498 24.3384 106.498 25.8533V37.3715C106.498 38.4247 106.838 39.3625 107.505 40.043C108.173 40.7236 109.031 41.0662 110.088 41.0662H112.553V37.7214H111.39C110.555 37.7214 110.142 37.256 110.142 36.3291L110.141 36.3267Z" fill="white"/>
<path d="M231.566 37.7189C230.735 37.7189 230.321 37.2536 230.321 36.3254V18.0249H226.726V21.6475H226.172C225.435 20.1927 224.428 19.1154 223.154 18.4193C221.878 17.7219 220.457 17.3744 218.89 17.3744C217.444 17.3744 216.079 17.6378 214.787 18.1644C213.496 18.691 212.368 19.4581 211.399 20.4632C210.431 21.4696 209.67 22.7007 209.118 24.1555C208.564 25.6115 208.288 27.284 208.288 29.1716V29.9146C208.288 31.8347 208.565 33.5228 209.118 34.9776C209.671 36.4336 210.431 37.6648 211.399 38.6699C212.368 39.6762 213.496 40.4349 214.787 40.9459C216.079 41.4568 217.476 41.713 218.983 41.713C220.49 41.713 221.801 41.3414 223.107 40.5984C224.414 39.8554 225.435 38.7108 226.172 37.1622H226.726V37.4411C226.726 38.4943 227.055 39.3612 227.717 40.0417C228.377 40.7235 229.23 41.0637 230.276 41.0637H232.718V37.7201L231.566 37.7189ZM226.725 29.8232C226.725 31.0929 226.54 32.2471 226.171 33.2835C225.803 34.3211 225.296 35.2108 224.65 35.9539C224.005 36.6969 223.228 37.2704 222.322 37.6732C221.415 38.076 220.425 38.2767 219.349 38.2767C217.167 38.2767 215.392 37.5421 214.025 36.0705C212.656 34.6001 211.974 32.5477 211.974 29.9158V29.1728C211.974 27.9344 212.159 26.797 212.527 25.7594C212.896 24.7218 213.411 23.8393 214.072 23.1119C214.732 22.3845 215.508 21.8194 216.399 21.4166C217.291 21.0139 218.272 20.8131 219.349 20.8131C220.425 20.8131 221.369 21.0223 222.276 21.4395C223.181 21.8579 223.965 22.4374 224.626 23.1816C225.286 23.9247 225.801 24.8156 226.17 25.852C226.539 26.8896 226.724 28.0282 226.724 29.2666V29.8244L226.725 29.8232Z" fill="white"/>
<path d="M188.157 21.3673H195.902V37.7189H188.157V41.0637H207.241V37.7189H199.496V21.3673H207.241V18.0261H188.157V21.3673Z" fill="white"/>
<path d="M56.1464 0.521625L26.7639 20.2613L18.3712 3.00441C17.1196 0.431452 13.3635 0.829418 12.6703 3.60797L0.100394 54.0209C-0.654877 57.0484 3.0284 59.1527 5.21902 56.9451L24.0817 37.9377L56.1464 59.4785C58.1749 60.8405 60.8916 59.3765 60.8916 56.9186V3.08016C60.8916 0.62382 58.1749 -0.8406 56.1464 0.521625ZM5.50064 52.3113C4.81577 53.0013 3.66554 52.3439 3.9006 51.3976L14.9946 6.90474C15.2117 6.03665 16.3846 5.91159 16.7759 6.71595L24.201 21.9818L16.0756 27.4403C14.2631 28.6582 14.2631 31.3406 16.0756 32.5586L21.4913 36.1968L5.50064 52.3113ZM23.6927 33.9797L18.9594 30.7996C18.3927 30.4197 18.3927 29.5804 18.9594 29.2005L25.5564 24.7688L27.6504 29.0731C27.8294 29.4422 27.7566 29.8846 27.4678 30.1756L23.6927 33.9797ZM57.8397 55.1237C57.8397 55.8908 56.9903 56.349 56.3564 55.9234L26.2818 35.7195L30.1071 31.8648C31.0294 30.9355 31.2645 29.5167 30.6894 28.336L28.1169 23.047L56.3577 4.07688C56.9911 3.65125 57.841 4.10934 57.841 4.8764L57.8397 55.1237Z" fill="white"/>
</svg>
