<svg width="172" height="44" viewBox="0 0 172 44" fill="none" xmlns="http://www.w3.org/2000/svg">
<path d="M96.6531 14.0227C95.403 13.3319 93.9589 12.9865 92.3225 12.9865C90.6858 12.9865 89.2411 13.3319 87.991 14.0227C86.741 14.7144 85.7677 15.6952 85.07 16.966C84.3736 18.2368 84.0246 19.7197 84.0246 21.4138V21.8484C84.0246 23.565 84.3736 25.0539 85.07 26.3126C85.7668 27.5722 86.7404 28.5478 87.991 29.2386C89.2411 29.9294 90.6843 30.2757 92.3225 30.2757C93.9607 30.2757 95.403 29.9294 96.6531 29.2386C97.9031 28.5478 98.8764 27.5722 99.5741 26.3126C100.271 25.0531 100.62 23.565 100.62 21.8484V21.4138C100.62 19.7197 100.271 18.2368 99.5741 16.966C98.8773 15.6952 97.9031 14.7144 96.6531 14.0227ZM97.9976 21.7817C97.9976 23.6542 97.4828 25.1431 96.4547 26.246C95.4256 27.3497 94.0484 27.9011 92.3225 27.9011C90.5966 27.9011 89.2469 27.3488 88.2076 26.246C87.1671 25.1422 86.6475 23.6542 86.6475 21.7817V21.4805C86.6475 19.608 87.1671 18.1191 88.2076 17.0162C89.2469 15.9125 90.6189 15.361 92.3225 15.361C94.0262 15.361 95.4256 15.9125 96.4547 17.0162C97.4828 18.1199 97.9976 19.608 97.9976 21.4805V21.7817Z" fill="white"/>
<path d="M113.585 21.2303C112.667 20.8849 111.632 20.6113 110.482 20.4114L109.121 20.1768C108.103 19.9984 107.291 19.7258 106.681 19.3578C106.072 18.9899 105.769 18.416 105.769 17.6352C105.769 16.8543 106.09 16.225 106.731 15.8121C107.373 15.4 108.247 15.1931 109.353 15.1931C110.46 15.1931 111.389 15.4329 112.141 15.9125C112.893 16.3921 113.37 17.2222 113.568 18.4039L116.024 17.7685C115.692 16.2527 114.956 15.0762 113.817 14.24C112.677 13.4038 111.189 12.9865 109.353 12.9865C107.517 12.9865 106.001 13.3994 104.873 14.2236C103.745 15.0485 103.181 16.1964 103.181 17.668C103.181 18.6497 103.435 19.4626 103.944 20.1092C104.453 20.7559 105.14 21.2684 106.002 21.6475C106.864 22.0267 107.816 22.3054 108.856 22.4838L110.217 22.7175C111.389 22.9409 112.313 23.2248 112.988 23.5702C113.662 23.9156 114 24.512 114 25.3595C114 26.207 113.646 26.8424 112.938 27.3324C112.229 27.8232 111.267 28.0682 110.051 28.0682C109.232 28.0682 108.463 27.9401 107.744 27.6838C107.025 27.4276 106.422 26.993 105.935 26.3793C105.448 25.7664 105.116 24.9249 104.939 23.8541L102.451 24.4229C102.738 26.452 103.573 27.9349 104.957 28.8707C106.339 29.8073 108.037 30.2757 110.051 30.2757C112.065 30.2757 113.63 29.8411 114.813 28.9711C115.996 28.1011 116.589 26.864 116.589 25.2591C116.589 24.2108 116.318 23.3642 115.776 22.7175C115.235 22.0709 114.503 21.5748 113.586 21.2294L113.585 21.2303Z" fill="white"/>
<path d="M134.205 13.3379H131.616V15.9462H131.218C130.687 14.8987 129.962 14.1231 129.044 13.6219C128.126 13.1198 127.103 12.8696 125.974 12.8696C124.934 12.8696 123.95 13.0592 123.021 13.4383C122.091 13.8175 121.278 14.3698 120.581 15.0935C119.884 15.8181 119.336 16.7045 118.938 17.7519C118.54 18.8003 118.341 20.0044 118.341 21.3635V21.8985C118.341 23.281 118.54 24.4964 118.938 25.5439C119.337 26.5922 119.884 27.4786 120.581 28.2023C121.278 28.9269 122.091 29.4731 123.021 29.841C123.95 30.2089 124.956 30.3933 126.041 30.3933C127.126 30.3933 128.07 30.1258 129.011 29.5908C129.952 29.0559 130.687 28.2317 131.218 27.1168H131.616V27.3176C131.616 28.0759 131.854 28.7001 132.33 29.19C132.805 29.6809 133.42 29.9259 134.172 29.9259H135.931V27.5184H135.101C134.503 27.5184 134.205 27.1834 134.205 26.5151V13.3379ZM131.616 21.8327C131.616 22.7469 131.483 23.5779 131.218 24.3241C130.952 25.0712 130.587 25.7118 130.123 26.2468C129.658 26.7817 129.099 27.1947 128.446 27.4847C127.794 27.7747 127.081 27.9192 126.306 27.9192C124.734 27.9192 123.457 27.3903 122.473 26.3308C121.487 25.272 120.996 23.7943 120.996 21.8994V21.3644C120.996 20.4728 121.129 19.6538 121.394 18.9068C121.66 18.1597 122.03 17.5243 122.506 17.0006C122.982 16.4768 123.54 16.07 124.182 15.78C124.824 15.49 125.531 15.3454 126.306 15.3454C127.081 15.3454 127.76 15.496 128.413 15.7964C129.065 16.0977 129.629 16.5149 130.105 17.0508C130.58 17.5857 130.952 18.2272 131.217 18.9734C131.482 19.7205 131.616 20.5403 131.616 21.4319V21.8336L131.616 21.8327Z" fill="white"/>
<path d="M81.3812 26.5152V18.7398C81.3812 17.5798 81.1424 16.5808 80.6675 15.7445C80.1923 14.9083 79.5437 14.2694 78.725 13.8236C77.9064 13.3778 76.9563 13.1536 75.8713 13.1536C74.5 13.1536 73.4314 13.4332 72.6686 13.9898C71.9049 14.549 71.3361 15.2269 70.96 16.0302H70.4959C70.142 15.2277 69.5733 14.549 68.7873 13.9898C68.0011 13.4332 66.9772 13.1536 65.716 13.1536C64.4549 13.1536 63.4387 13.4003 62.7299 13.8903C62.0211 14.3803 61.5126 14.9144 61.2025 15.4961H60.7387V13.4557H58.1837V29.8099H60.8047V19.9777C60.8047 18.5052 61.1861 17.3815 61.9499 16.5981C62.7136 15.8199 63.6912 15.4303 64.8863 15.4303C66.0151 15.4303 66.8948 15.7463 67.5262 16.3825C68.155 17.0162 68.471 17.8828 68.471 18.9735V29.8108H71.0921V19.9785C71.0921 18.506 71.4735 17.3824 72.2372 16.599C73.0009 15.8207 73.9785 15.4312 75.1736 15.4312C76.3024 15.4312 77.1821 15.7471 77.8135 16.3834C78.4424 17.0171 78.7587 17.8836 78.7587 18.9743V27.2674C78.7587 28.0258 79.0034 28.701 79.4835 29.191C79.9646 29.6809 80.5823 29.9277 81.3436 29.9277H83.1182V27.5194H82.2807C81.6793 27.5194 81.3822 27.1843 81.3822 26.5169L81.3812 26.5152Z" fill="white"/>
<path d="M168.807 27.5176C168.209 27.5176 167.911 27.1825 167.911 26.5143V13.3379H165.323V15.9462H164.924C164.394 14.8987 163.668 14.1231 162.751 13.6219C161.832 13.1198 160.809 12.8696 159.681 12.8696C158.64 12.8696 157.657 13.0592 156.727 13.4383C155.797 13.8175 154.985 14.3698 154.287 15.0935C153.591 15.8181 153.043 16.7045 152.645 17.7519C152.246 18.8003 152.048 20.0044 152.048 21.3635V21.8985C152.048 23.281 152.247 24.4964 152.645 25.5439C153.043 26.5922 153.591 27.4786 154.287 28.2023C154.985 28.9269 155.797 29.4731 156.727 29.841C157.657 30.2089 158.663 30.3933 159.748 30.3933C160.833 30.3933 161.777 30.1258 162.717 29.5908C163.658 29.0559 164.394 28.2317 164.924 27.1168H165.323V27.3176C165.323 28.0759 165.56 28.7001 166.037 29.19C166.512 29.6809 167.126 29.9259 167.879 29.9259H169.637V27.5184L168.807 27.5176ZM165.322 21.8327C165.322 22.7469 165.189 23.5779 164.923 24.3241C164.658 25.0712 164.293 25.7118 163.828 26.2468C163.363 26.7817 162.804 27.1947 162.152 27.4847C161.499 27.7747 160.786 27.9192 160.011 27.9192C158.44 27.9192 157.163 27.3903 156.178 26.3308C155.193 25.272 154.701 23.7943 154.701 21.8994V21.3644C154.701 20.4728 154.834 19.6538 155.1 18.9068C155.365 18.1597 155.736 17.5243 156.212 17.0006C156.687 16.4768 157.246 16.07 157.887 15.78C158.529 15.49 159.236 15.3454 160.011 15.3454C160.786 15.3454 161.466 15.496 162.119 15.7964C162.771 16.0977 163.335 16.5149 163.811 17.0508C164.286 17.5857 164.657 18.2272 164.923 18.9734C165.188 19.7205 165.321 20.5403 165.321 21.4319V21.8336L165.322 21.8327Z" fill="white"/>
<path d="M137.553 15.7445H143.129V27.5176H137.553V29.9259H151.293V27.5176H145.717V15.7445H151.293V13.3388H137.553V15.7445Z" fill="white"/>
<path d="M42.5055 0.735555L21.3501 14.9481L15.3073 2.52316C14.4062 0.670631 11.7018 0.957166 11.2027 2.95772L2.15236 39.2551C1.60857 41.4348 4.26053 42.95 5.83777 41.3605L19.4189 27.6752L42.5055 43.1845C43.966 44.1651 45.922 43.111 45.922 41.3413V2.5777C45.922 0.809136 43.966 -0.245247 42.5055 0.735555ZM6.04054 38.0241C5.54743 38.521 4.71927 38.0476 4.88851 37.3663L12.8762 5.3314C13.0325 4.70637 13.877 4.61633 14.1588 5.19547L19.5048 16.1869L13.6545 20.117C12.3495 20.9939 12.3495 22.9252 13.6545 23.8022L17.5538 26.4217L6.04054 38.0241ZM19.1388 24.8254L15.7309 22.5357C15.3228 22.2621 15.3228 21.6579 15.7309 21.3843L20.4807 18.1935L21.9884 21.2926C22.1172 21.5583 22.0648 21.8769 21.8569 22.0864L19.1388 24.8254ZM43.7247 40.049C43.7247 40.6014 43.1131 40.9313 42.6567 40.6248L21.003 26.078L23.7572 23.3027C24.4213 22.6335 24.5905 21.612 24.1764 20.7619L22.3243 16.9538L42.6576 3.29534C43.1137 2.98889 43.7256 3.31871 43.7256 3.87099L43.7247 40.049Z" fill="white"/>
</svg>
