<svg width="172" height="56" viewBox="0 0 172 56" fill="none" xmlns="http://www.w3.org/2000/svg">
<mask id="mask0_1576_31400" style="mask-type:luminance" maskUnits="userSpaceOnUse" x="0" y="0" width="172" height="56">
<path d="M172 0.5H0V55.5H172V0.5Z" fill="white"/>
</mask>
<g mask="url(#mask0_1576_31400)">
<path d="M71.119 12.6685C67.9405 12.6685 65.6292 13.4351 63.6656 15.2037L60.198 18.2691C59.909 18.5056 59.331 18.6823 58.9272 18.3276C58.5222 17.9742 58.4649 17.5025 58.8113 17.0308L60.6603 14.2006C60.9493 13.7874 60.7189 13.2572 60.198 13.2572H55.7487C55.2291 13.2572 54.8242 13.6704 54.8242 14.2006V41.7957C54.8242 42.3259 55.2291 42.7391 55.7487 42.7391H60.3713C60.8909 42.7391 61.2958 42.3259 61.2958 41.7957V26.2295C61.2958 19.0955 67.1319 17.9754 69.3273 17.9754C74.0072 17.9754 75.6831 21.3955 75.6831 23.9892V41.7957C75.6831 42.3259 76.0879 42.7391 76.6075 42.7391H81.23C81.7496 42.7391 82.1546 42.3259 82.1546 41.7957V23.3993C82.1546 16.7955 77.9371 12.6685 71.119 12.6685Z" fill="white"/>
<path d="M100.676 12.4995C91.7202 12.4995 86 18.1014 86 25.707V29.894C86 37.9128 91.7202 43.3965 100.676 43.3965C108.592 43.3965 114.139 39.2098 114.717 33.5494C114.776 32.9594 114.371 32.5475 113.793 32.5475H109.286C108.881 32.5475 108.534 32.7839 108.419 33.1958C107.841 35.0827 105.126 37.9128 100.676 37.9128C96.2268 37.9128 92.0666 34.6109 92.124 29.894L92.1824 24.6468C92.2399 20.6964 96.2854 17.9844 100.676 17.9844C104.663 17.9844 108.534 20.2844 108.938 24.0581C108.972 24.4944 108.678 24.888 108.256 24.971L95.3012 27.5367C94.7816 27.6548 94.3768 28.1265 94.3768 28.7152V28.7737C94.3768 29.304 94.8962 29.7757 95.6476 29.7757H114.254C114.765 29.7757 115.178 29.3528 115.178 28.8322V25.1185C115.178 18.1026 109.226 12.5007 100.675 12.5007L100.676 12.4995Z" fill="white"/>
<path d="M133.23 12.5507C126.007 12.5507 119.767 16.8545 119.767 22.5149C119.767 22.9866 120.172 23.34 120.692 23.34H125.372C125.834 23.34 126.18 22.9866 126.239 22.5149C126.701 19.9211 129.764 18.0343 133.057 18.0343C136.986 18.0343 139.644 20.5111 139.644 24.7564V29.8866C139.644 35.1338 135.831 37.7873 131.092 37.7873C127.394 37.7873 125.256 36.3722 125.256 34.0721C125.256 32.0671 126.296 30.357 130.571 29.3551L136.754 27.6451C137.389 27.4683 137.621 26.9369 137.505 26.3482C137.448 25.8765 136.928 25.6401 136.465 25.6401H130.052C124.62 25.6401 119.131 29.1772 119.131 34.3659V35.191C119.131 40.498 124.042 43.2685 129.647 43.2685C133.229 43.2685 136.292 41.8533 138.198 40.2031L141.03 37.7264C141.492 37.3132 141.955 37.3132 142.358 37.7264C142.705 38.0798 142.589 38.6111 142.3 39.0232L140.566 41.7948C140.277 42.2081 140.508 42.7383 141.029 42.7383H145.189C145.709 42.7383 146.114 42.3251 146.114 41.7948V23.9287C146.114 17.0897 141.318 12.5494 133.228 12.5494L133.23 12.5507Z" fill="white"/>
<path d="M171.076 13.2586H164.604C162.351 13.2586 160.155 14.6737 158.594 16.0303L156.053 18.2706C155.764 18.507 155.243 18.6838 154.897 18.3888C154.492 18.0938 154.319 17.5039 154.666 17.0322L156.515 14.202C156.804 13.7888 156.574 13.2586 156.053 13.2586H151.719C151.2 13.2586 150.795 13.6718 150.795 14.202V41.797C150.795 42.3273 151.2 42.7405 151.719 42.7405H156.458C156.977 42.7405 157.382 42.3273 157.382 41.797V27.6461C157.382 21.5725 159.809 18.8605 165.068 18.8605H171.076C171.596 18.8605 172.001 18.4473 172.001 17.9171V14.202C172.001 13.6718 171.596 13.2586 171.076 13.2586Z" fill="white"/>
<path d="M37.4593 6.60895C35.9065 6.60895 34.4648 7.43046 33.6514 8.78096L24.8877 22.058C24.6021 22.4957 24.718 23.0855 25.1469 23.3769C25.4945 23.6133 25.9543 23.5841 26.2709 23.3062L34.8973 15.6712C35.0406 15.5396 35.2615 15.553 35.3905 15.6992C35.4491 15.7663 35.4802 15.8528 35.4802 15.9418V39.8462C35.4802 40.0436 35.3236 40.202 35.1301 40.202C35.0261 40.202 34.9283 40.1558 34.8626 40.0741L8.78641 8.22273C7.93717 7.2001 6.69015 6.61017 5.37744 6.60895H4.46607C1.99951 6.60895 0 8.64933 0 11.1663V44.8337C0 47.3507 1.99951 49.3911 4.46607 49.3911C6.01886 49.3911 7.46057 48.5696 8.27399 47.2191L17.0378 33.942C17.3232 33.5044 17.2073 32.9145 16.7785 32.6231C16.4309 32.3867 15.9711 32.416 15.6546 32.6939L7.02817 40.3289C6.88484 40.4605 6.66387 40.447 6.53488 40.3007C6.47634 40.2337 6.44528 40.1472 6.44648 40.0582V16.1478C6.44648 15.9503 6.60295 15.7919 6.79645 15.7919C6.89918 15.7919 6.99831 15.8382 7.06401 15.9199L33.1367 47.7773C33.9858 48.7999 35.2329 49.3899 36.5456 49.3911H37.4569C39.9235 49.3923 41.9243 47.3531 41.9266 44.8363V11.1663C41.9266 8.64933 39.9258 6.60895 37.4593 6.60895Z" fill="white"/>
</g>
</svg>
