<svg width="172" height="46" viewBox="0 0 172 46" fill="none" xmlns="http://www.w3.org/2000/svg">
<path fill-rule="evenodd" clip-rule="evenodd" d="M22.8066 0.193359C39.6608 0.193359 45.6133 6.17378 45.6133 23C45.6133 39.7626 39.5616 45.8066 22.8066 45.8066C6.10097 45.8066 0 39.685 0 23C0 6.25102 6.00147 0.193359 22.8066 0.193359ZM21.1206 25.6722C20.0758 28.1606 17.616 29.9081 14.7481 29.9081C10.9327 29.9081 7.83978 26.8152 7.83978 22.9997C7.83978 19.1843 10.9327 16.0914 14.7481 16.0914C17.616 16.0914 20.0758 17.8389 21.1206 20.3272C22.2114 16.2294 25.7505 13.1298 30.0761 12.6906C30.7777 12.6195 31.1352 12.6809 31.1352 13.5007V19.7614C31.1352 20.2277 31.0475 20.4599 30.0761 20.4599C28.6313 20.4599 27.7013 21.7447 27.7013 22.9997C27.7013 24.4305 28.5366 25.5903 30.0761 25.5903C31.1352 25.5903 31.1352 24.998 31.1352 24.268V21.2727C31.1352 20.697 31.3376 20.4091 31.8774 20.4091H35.1764C35.7053 20.4091 35.73 20.419 36.0337 20.8405C36.0337 20.8405 37.359 22.6692 37.59 22.9997C37.821 23.3303 37.848 23.4315 37.59 23.8166C37.332 24.2017 36.0337 26.0147 36.0337 26.0147C35.731 26.4425 35.7095 26.454 35.1764 26.454H32.6992C31.4078 26.454 31.1352 27.3476 31.1352 28.154V32.2829C31.1352 33.2451 30.9649 33.3991 30.0761 33.3088C25.7505 32.8697 22.2114 29.7701 21.1206 25.6722ZM17.0509 22.9997C17.0509 24.2716 16.0199 25.3025 14.7481 25.3025C13.4763 25.3025 12.4454 24.2716 12.4454 22.9997C12.4454 21.7279 13.4763 20.6969 14.7481 20.6969C16.0199 20.6969 17.0509 21.7279 17.0509 22.9997ZM81.3653 30.3343C82.4625 28.3042 83.0111 25.8422 83.0111 22.9481C83.0111 20.0541 82.4625 17.592 81.3653 15.5619C80.2769 13.5317 78.7909 11.9853 76.9077 10.9228C75.0331 9.85159 72.9251 9.31597 70.584 9.31597C68.2257 9.31597 66.1091 9.85159 64.2345 10.9228C62.3598 11.9853 60.8783 13.5317 59.7898 15.5619C58.7012 17.592 58.157 20.0541 58.157 22.9481C58.157 25.8335 58.7012 28.2912 59.7898 30.3214C60.8783 32.3516 62.3598 33.9022 64.2345 34.9735C66.1091 36.0446 68.2257 36.5803 70.584 36.5803C72.9251 36.5803 75.0331 36.049 76.9077 34.9864C78.7909 33.9151 80.2769 32.3645 81.3653 30.3343ZM76.48 18.2054C77.0416 19.4925 77.3224 21.0735 77.3224 22.9481C77.3224 24.8227 77.0416 26.4037 76.48 27.6908C75.9272 28.9781 75.1454 29.9542 74.1346 30.6194C73.1239 31.2846 71.9404 31.6172 70.584 31.6172C69.2277 31.6172 68.0442 31.2846 67.0334 30.6194C66.0227 29.9542 65.2366 28.9781 64.675 27.6908C64.1222 26.4037 63.8457 24.8227 63.8457 22.9481C63.8457 21.0735 64.1222 19.4925 64.675 18.2054C65.2366 16.9182 66.0227 15.942 67.0334 15.2768C68.0442 14.6116 69.2277 14.279 70.584 14.279C71.9404 14.279 73.1239 14.6116 74.1346 15.2768C75.1454 15.942 75.9272 16.9182 76.48 18.2054ZM89.0272 35.3103C90.4958 36.1742 92.2495 36.6061 94.2883 36.6061C96.0596 36.6061 97.5924 36.2822 98.8886 35.6343C100.184 34.9864 101.2 34.0879 101.933 32.9389C102.676 31.7814 103.092 30.4424 103.177 28.9219H97.9687C97.8652 29.6216 97.6447 30.2221 97.3073 30.7231C96.9795 31.2155 96.5604 31.5913 96.0501 31.8505C95.5493 32.1096 94.9837 32.2392 94.353 32.2392C93.4978 32.2392 92.7506 32.0059 92.1112 31.5395C91.472 31.073 90.9753 30.3948 90.6211 29.505C90.2755 28.6152 90.1027 27.5354 90.1027 26.2654C90.1027 25.0128 90.2799 23.9459 90.634 23.0647C90.9882 22.1836 91.4806 21.514 92.1112 21.0562C92.7506 20.5897 93.4978 20.3564 94.353 20.3564C95.364 20.3564 96.1803 20.6632 96.8018 21.2765C97.4328 21.8812 97.8214 22.6803 97.9687 23.6737H103.177C103.1 22.1361 102.681 20.7971 101.921 19.6567C101.161 18.5164 100.128 17.6309 98.824 17.0002C97.5193 16.3696 95.9988 16.0543 94.2624 16.0543C92.2495 16.0543 90.5131 16.4906 89.0531 17.363C87.5931 18.2269 86.4657 19.4321 85.671 20.9785C84.8849 22.5162 84.4918 24.3044 84.4918 26.3432C84.4918 28.356 84.8806 30.1357 85.658 31.682C86.4442 33.2284 87.5672 34.4378 89.0272 35.3103ZM116.205 16.3135V20.4601H112.459V30.1011C112.459 30.6108 112.537 31.0082 112.692 31.2932C112.848 31.5697 113.064 31.7641 113.34 31.8764C113.625 31.9887 113.954 32.0448 114.325 32.0448C114.584 32.0448 114.844 32.0232 115.103 31.9801C115.362 31.9282 115.56 31.8893 115.699 31.8634L116.568 35.9713C116.291 36.0576 115.902 36.1569 115.401 36.2693C114.9 36.3902 114.291 36.4636 113.574 36.4895C112.244 36.5414 111.077 36.3643 110.075 35.9582C109.081 35.5522 108.309 34.9216 107.756 34.0663C107.203 33.2111 106.931 32.1313 106.939 30.8267V20.4601H104.218V16.3135H106.939V11.5448H112.459V16.3135H116.205ZM120.986 35.9323C121.979 36.3729 123.111 36.5932 124.382 36.5932C125.366 36.5932 126.235 36.4636 126.985 36.2045C127.737 35.9367 128.381 35.5695 128.916 35.103C129.452 34.6279 129.88 34.0793 130.199 33.4573H130.355V36.2174H135.59V22.7926C135.59 21.6091 135.361 20.594 134.903 19.7474C134.445 18.8921 133.819 18.1924 133.024 17.6481C132.239 17.1039 131.336 16.7022 130.316 16.4431C129.305 16.1838 128.247 16.0543 127.141 16.0543C125.551 16.0543 124.153 16.2962 122.943 16.78C121.742 17.2551 120.761 17.9376 120.001 18.8274C119.241 19.7085 118.731 20.7538 118.472 21.9632L123.578 22.3779C123.768 21.7214 124.156 21.1772 124.744 20.7452C125.332 20.3046 126.122 20.0844 127.116 20.0844C128.057 20.0844 128.782 20.3089 129.293 20.7582C129.811 21.2074 130.07 21.8424 130.07 22.663V22.7408C130.07 23.1641 129.91 23.4838 129.59 23.6997C129.271 23.9157 128.757 24.0798 128.049 24.1921C127.34 24.2958 126.407 24.4081 125.249 24.529C124.265 24.624 123.323 24.7882 122.424 25.0214C121.535 25.2547 120.74 25.6002 120.04 26.0581C119.34 26.516 118.787 27.1207 118.382 27.8722C117.976 28.6238 117.772 29.5525 117.772 30.6584C117.772 31.9715 118.058 33.0685 118.628 33.9497C119.206 34.8223 119.992 35.4831 120.986 35.9323ZM128.113 32.304C127.491 32.6236 126.774 32.7835 125.962 32.7835C125.115 32.7835 124.416 32.5891 123.863 32.2004C123.318 31.803 123.047 31.2284 123.047 30.4769C123.047 29.9586 123.181 29.5266 123.448 29.1811C123.716 28.8269 124.092 28.5461 124.576 28.3387C125.059 28.1315 125.626 27.9803 126.273 27.8853C126.576 27.842 126.912 27.7945 127.284 27.7427C127.655 27.6822 128.027 27.6175 128.398 27.5483C128.77 27.4706 129.103 27.3885 129.396 27.3021C129.698 27.2071 129.936 27.1034 130.109 26.9911V29.1033C130.109 29.803 129.931 30.4293 129.578 30.9823C129.223 31.5352 128.735 31.9757 128.113 32.304ZM144.298 24.7105V36.2174H138.778V16.3135H144.039V19.8251H144.273C144.713 18.6676 145.452 17.7518 146.488 17.078C147.525 16.3956 148.782 16.0543 150.26 16.0543C151.641 16.0543 152.846 16.3567 153.874 16.9614C154.903 17.5661 155.702 18.43 156.272 19.5531C156.842 20.6674 157.127 21.9978 157.127 23.5442V36.2174H151.607V24.529C151.616 23.3109 151.305 22.3606 150.674 21.6782C150.043 20.9871 149.175 20.6415 148.069 20.6415C147.326 20.6415 146.669 20.8013 146.099 21.121C145.538 21.4407 145.098 21.9072 144.777 22.5205C144.467 23.1252 144.307 23.8552 144.298 24.7105ZM170.97 20.4601V16.3135H167.225V11.5448H161.705V16.3135H158.984V20.4601H161.705V30.8267C161.696 32.1313 161.968 33.2111 162.521 34.0663C163.074 34.9216 163.848 35.5522 164.841 35.9582C165.843 36.3643 167.009 36.5414 168.34 36.4895C169.057 36.4636 169.665 36.3902 170.167 36.2693C170.668 36.1569 171.056 36.0576 171.333 35.9713L170.464 31.8634C170.327 31.8893 170.128 31.9282 169.869 31.9801C169.609 32.0232 169.351 32.0448 169.091 32.0448C168.72 32.0448 168.392 31.9887 168.107 31.8764C167.83 31.7641 167.614 31.5697 167.459 31.2932C167.303 31.0082 167.225 30.6108 167.225 30.1011V20.4601H170.97Z" fill="white"/>
</svg>
