<svg width="152" height="200" viewBox="0 0 152 200" fill="none" xmlns="http://www.w3.org/2000/svg">
<path d="M75.9999 0C131.519 0 151.127 19.7001 151.127 75.1271C151.127 130.345 131.192 150.254 75.9999 150.254C20.97 150.254 0.872803 130.089 0.872803 75.1271C0.872803 19.9545 20.6422 0 75.9999 0Z" fill="#171717"/>
<path fill-rule="evenodd" clip-rule="evenodd" d="M70.4462 83.93C67.0046 92.1268 58.9019 97.8835 49.4548 97.8835C36.8866 97.8835 26.698 87.6949 26.698 75.1267C26.698 62.5585 36.8866 52.3699 49.4548 52.3699C58.9019 52.3699 67.0046 58.1265 70.4462 66.3233C74.0392 52.8244 85.6975 42.6143 99.9463 41.1676C102.258 40.933 103.435 41.1355 103.435 43.8361V64.4594C103.435 65.9953 103.147 66.7604 99.9463 66.7604C95.1871 66.7604 92.1237 70.9925 92.1237 75.1267C92.1237 79.8398 94.8751 83.6605 99.9463 83.6605C103.435 83.6605 103.435 81.7092 103.435 79.3047V69.4375C103.435 67.5411 104.102 66.5929 105.88 66.5929H116.747C118.49 66.5929 118.571 66.6256 119.571 68.0139C119.571 68.0139 123.937 74.0377 124.698 75.1267C125.459 76.2156 125.548 76.549 124.698 77.8175C123.848 79.086 119.571 85.0585 119.571 85.0585C118.574 86.4672 118.503 86.5051 116.747 86.5051H108.587C104.333 86.5051 103.435 89.4489 103.435 92.1054V105.706C103.435 108.876 102.874 109.383 99.9463 109.086C85.6975 107.639 74.0392 97.429 70.4462 83.93ZM57.0403 75.1266C57.0403 79.316 53.6442 82.7122 49.4548 82.7122C45.2654 82.7122 41.8692 79.316 41.8692 75.1266C41.8692 70.9372 45.2654 67.541 49.4548 67.541C53.6442 67.541 57.0403 70.9372 57.0403 75.1266Z" fill="white"/>
<path d="M36.9837 183.225C36.9837 186.78 36.3143 189.803 34.9753 192.297C33.6469 194.79 31.8336 196.695 29.5353 198.011C27.2475 199.316 24.6751 199.968 21.818 199.968C18.9398 199.968 16.3568 199.31 14.069 197.995C11.7813 196.679 9.97317 194.774 8.64479 192.281C7.3164 189.788 6.65221 186.769 6.65221 183.225C6.65221 179.671 7.3164 176.647 8.64479 174.153C9.97317 171.66 11.7813 169.76 14.069 168.455C16.3568 167.14 18.9398 166.482 21.818 166.482C24.6751 166.482 27.2475 167.14 29.5353 168.455C31.8336 169.76 33.6469 171.66 34.9753 174.153C36.3143 176.647 36.9837 179.671 36.9837 183.225ZM30.0413 183.225C30.0413 180.923 29.6987 178.981 29.0134 177.4C28.3387 175.819 27.3845 174.62 26.151 173.803C24.9175 172.986 23.4732 172.577 21.818 172.577C20.1627 172.577 18.7184 172.986 17.4849 173.803C16.2514 174.62 15.292 175.819 14.6067 177.4C13.932 178.981 13.5946 180.923 13.5946 183.225C13.5946 185.527 13.932 187.469 14.6067 189.05C15.292 190.631 16.2514 191.83 17.4849 192.647C18.7184 193.464 20.1627 193.873 21.818 193.873C23.4732 193.873 24.9175 193.464 26.151 192.647C27.3845 191.83 28.3387 190.631 29.0134 189.05C29.6987 187.469 30.0413 185.527 30.0413 183.225Z" fill="#171717"/>
<path d="M50.7463 200C48.2582 200 46.118 199.47 44.3257 198.409C42.544 197.337 41.1734 195.851 40.214 193.952C39.2652 192.053 38.7908 189.867 38.7908 187.395C38.7908 184.891 39.2705 182.695 40.2299 180.806C41.1998 178.907 42.5756 177.426 44.3573 176.365C46.1391 175.294 48.2582 174.758 50.7146 174.758C52.8337 174.758 54.6893 175.145 56.2812 175.92C57.8732 176.694 59.133 177.782 60.0608 179.182C60.9885 180.583 61.4999 182.228 61.5948 184.116H55.2375C55.0583 182.896 54.5838 181.915 53.8142 181.172C53.0551 180.419 52.0588 180.042 50.8253 180.042C49.7816 180.042 48.8697 180.328 48.0895 180.901C47.3199 181.464 46.7189 182.286 46.2867 183.368C45.8544 184.451 45.6383 185.761 45.6383 187.299C45.6383 188.859 45.8491 190.185 46.2709 191.278C46.7031 192.371 47.3093 193.204 48.0895 193.777C48.8697 194.35 49.7816 194.637 50.8253 194.637C51.595 194.637 52.2855 194.477 52.897 194.159C53.519 193.841 54.0303 193.379 54.431 192.774C54.8421 192.159 55.111 191.422 55.2375 190.562H61.5948C61.4893 192.43 60.9833 194.074 60.0766 195.496C59.1805 196.907 57.9417 198.011 56.3603 198.806C54.7789 199.602 52.9075 200 50.7463 200Z" fill="#171717"/>
<path d="M77.4922 175.076V180.169H62.8642V175.076H77.4922ZM66.1851 169.219H72.922V192.01C72.922 192.636 73.0168 193.125 73.2066 193.475C73.3964 193.814 73.6599 194.053 73.9973 194.191C74.3452 194.329 74.7458 194.398 75.1992 194.398C75.5155 194.398 75.8317 194.371 76.148 194.318C76.4643 194.255 76.7068 194.207 76.8755 194.175L77.935 199.22C77.5977 199.326 77.1232 199.448 76.5118 199.586C75.9003 199.735 75.157 199.825 74.282 199.857C72.6584 199.92 71.2351 199.703 70.0121 199.204C68.7997 198.706 67.8562 197.931 67.1814 196.881C66.5067 195.83 66.1746 194.504 66.1851 192.902V169.219Z" fill="#171717"/>
<path d="M87.4713 199.984C85.9215 199.984 84.5404 199.714 83.328 199.172C82.1155 198.621 81.1562 197.809 80.4498 196.737C79.754 195.655 79.4061 194.308 79.4061 192.695C79.4061 191.337 79.6538 190.196 80.1493 189.273C80.6448 188.35 81.3196 187.607 82.1735 187.045C83.0275 186.482 83.9974 186.058 85.0833 185.772C86.1798 185.485 87.3289 185.283 88.5308 185.167C89.9435 185.018 91.0822 184.88 91.9467 184.753C92.8112 184.615 93.4385 184.413 93.8286 184.148C94.2186 183.883 94.4137 183.49 94.4137 182.97V182.875C94.4137 181.867 94.0974 181.087 93.4648 180.535C92.8428 179.984 91.9572 179.708 90.8081 179.708C89.5956 179.708 88.631 179.978 87.9141 180.519C87.1972 181.05 86.7227 181.718 86.4908 182.525L80.26 182.015C80.5763 180.53 81.1983 179.246 82.1261 178.164C83.0538 177.071 84.2505 176.233 85.7159 175.649C87.1919 175.055 88.8998 174.758 90.8397 174.758C92.1892 174.758 93.4806 174.917 94.7141 175.235C95.9582 175.554 97.0599 176.047 98.0193 176.716C98.9892 177.384 99.7536 178.243 100.312 179.294C100.871 180.334 101.15 181.58 101.15 183.034V199.523H94.7616V196.133H94.5718C94.1817 196.897 93.6599 197.57 93.0062 198.154C92.3526 198.727 91.5671 199.178 90.6499 199.507C89.7327 199.825 88.6731 199.984 87.4713 199.984ZM89.4006 195.305C90.3916 195.305 91.2667 195.109 92.0257 194.716C92.7848 194.313 93.3805 193.772 93.8127 193.093C94.245 192.414 94.4611 191.644 94.4611 190.785V188.191C94.2503 188.329 93.9603 188.456 93.5913 188.573C93.2329 188.679 92.827 188.78 92.3736 188.875C91.9203 188.96 91.467 189.04 91.0136 189.114C90.5603 189.177 90.1491 189.236 89.7801 189.289C88.9894 189.406 88.2989 189.591 87.7085 189.846C87.1181 190.101 86.6595 190.445 86.3326 190.88C86.0058 191.305 85.8424 191.835 85.8424 192.472C85.8424 193.395 86.1745 194.101 86.8387 194.589C87.5134 195.066 88.3674 195.305 89.4006 195.305Z" fill="#171717"/>
<path d="M111.778 185.39V199.523H105.041V175.076H111.462V179.389H111.746C112.284 177.968 113.185 176.843 114.451 176.015C115.716 175.177 117.25 174.758 119.052 174.758C120.739 174.758 122.21 175.129 123.465 175.872C124.719 176.615 125.694 177.676 126.39 179.055C127.086 180.424 127.434 182.058 127.434 183.957V199.523H120.697V185.167C120.708 183.671 120.328 182.504 119.558 181.665C118.789 180.816 117.729 180.392 116.38 180.392C115.473 180.392 114.672 180.588 113.976 180.981C113.291 181.374 112.753 181.946 112.363 182.7C111.983 183.443 111.788 184.339 111.778 185.39Z" fill="#171717"/>
<path d="M144.328 175.076V180.169H129.7V175.076H144.328ZM133.021 169.219H139.757V192.01C139.757 192.636 139.852 193.125 140.042 193.475C140.232 193.814 140.495 194.053 140.833 194.191C141.181 194.329 141.581 194.398 142.035 194.398C142.351 194.398 142.667 194.371 142.983 194.318C143.3 194.255 143.542 194.207 143.711 194.175L144.77 199.22C144.433 199.326 143.959 199.448 143.347 199.586C142.736 199.735 141.992 199.825 141.117 199.857C139.494 199.92 138.071 199.703 136.848 199.204C135.635 198.706 134.692 197.931 134.017 196.881C133.342 195.83 133.01 194.504 133.021 192.902V169.219Z" fill="#171717"/>
</svg>
