<svg width="57" height="56" viewBox="0 0 57 56" fill="none" xmlns="http://www.w3.org/2000/svg">
<g clip-path="url(#clip0_1576_31466)">
<mask id="mask0_1576_31466" style="mask-type:luminance" maskUnits="userSpaceOnUse" x="0" y="0" width="57" height="56">
<path d="M56.8828 0H0.882812V56H56.8828V0Z" fill="white"/>
</mask>
<g mask="url(#mask0_1576_31466)">
<path d="M29.4082 23.0999L55.8296 38.2051C56.5437 38.6104 56.8068 39.5314 56.3558 40.2314C56.2431 40.4525 56.0552 40.6367 55.8296 40.7472L30.5357 55.2262C29.3706 55.8893 27.9048 55.8893 26.7397 55.2262L1.63368 40.8578C0.919586 40.4525 0.656499 39.5314 1.10751 38.8314C1.22026 38.6104 1.40818 38.4262 1.63368 38.3157L20.9518 27.263L27.6417 38.463C28.0552 39.1262 28.9196 39.3841 29.6337 39.0157L29.7088 38.9788L29.784 38.942C30.3102 38.5736 30.5733 37.9104 30.3854 37.2841L26.1384 24.3157L28.2431 23.0999C28.6189 22.8788 29.0323 22.8788 29.4082 23.0999ZM30.8364 48.3736C29.6713 47.7104 27.6041 47.8209 26.2135 48.6314L23.6954 50.0683L29.5961 53.4209L31.2874 52.463L29.6337 51.5051L30.4605 51.0262C31.8135 50.2157 32.0015 49.0367 30.8364 48.3736ZM27.6041 49.4051C28.0552 49.1472 28.7692 49.1104 29.1451 49.3314C29.5209 49.5525 29.4833 49.9578 28.9948 50.2157L28.1679 50.6946L26.7773 49.8841L27.6041 49.4051ZM31.0619 45.8314L29.3706 46.7893L35.2713 50.142L36.9625 49.1841L31.0619 45.8314ZM36.4364 42.7736L34.7451 43.7314L37.2256 45.1314L33.4672 44.4683L31.7008 45.463L37.6015 48.8157L39.2927 47.8578L36.8122 46.4578L40.5706 47.1209L42.337 46.1262L36.4364 42.7736ZM48.0122 36.142L42.976 39.0157L45.0807 40.1946L41.9236 39.6051L40.1572 40.5999L42.6377 41.9999L38.8793 41.3367L37.1129 42.3314L43.0135 45.6841L44.7048 44.7262L42.2243 43.3262L45.9827 43.9893L47.7491 42.9946L45.3437 41.6314L48.7263 42.2578L48.9142 42.3683L50.6055 41.4104L53.988 39.4946L52.5974 38.6841L49.2149 40.5999L48.3505 40.0841L51.733 38.1683L50.3424 37.3578L46.9599 39.2736L46.1706 38.8314L49.5531 36.9157L48.0122 36.142Z" fill="white"/>
<path d="M35.6822 -0.00012207C35.7573 -0.00012207 35.8325 -0.00012207 35.9452 0.03672C36.7721 0.184088 37.2983 0.92093 37.1855 1.73146L35.2687 12.8578C38.5761 14.9209 40.756 18.5315 40.756 22.6578V23.2104H32.0741L30.4204 37.9841C30.3452 38.6104 29.8191 39.1262 29.1801 39.2367H29.105C28.2781 39.3472 27.5264 38.7578 27.4137 37.9472L25.76 23.2104H17.0781V22.6578C17.0781 18.5315 19.258 14.9209 22.5654 12.8578L20.6486 1.73146C20.6486 1.65777 20.611 1.58409 20.611 1.47356C20.611 0.663036 21.2875 -0.00012207 22.1144 -0.00012207H35.6822Z" fill="white"/>
</g>
</g>
<defs>
<clipPath id="clip0_1576_31466">
<rect width="56" height="56" fill="white" transform="translate(0.882812)"/>
</clipPath>
</defs>
</svg>
