<?xml version="1.0" encoding="utf-8"?>
<!-- Generator: Adobe Illustrator 24.0.0, SVG Export Plug-In . SVG Version: 6.00 Build 0)  -->
<svg version="1.1" id="图层_1" xmlns="http://www.w3.org/2000/svg" xmlns:xlink="http://www.w3.org/1999/xlink" x="0px" y="0px"
	 viewBox="0 0 149 152" style="enable-background:new 0 0 149 152;" xml:space="preserve">
<style type="text/css">
	.st0{clip-path:url(#SVGID_2_);}
	.st1{fill:#3D4DF4;}
</style>
<g>
	<defs>
		<rect id="SVGID_1_" y="0" width="149" height="152"/>
	</defs>
	<clipPath id="SVGID_2_">
		<use xlink:href="#SVGID_1_"  style="overflow:visible;"/>
	</clipPath>
	<g class="st0">
		<path class="st1" d="M75.9,62.7l70.3,41c1.9,1.1,2.6,3.6,1.4,5.5c-0.3,0.6-0.8,1.1-1.4,1.4l-67.3,39.3c-3.1,1.8-7,1.8-10.1,0
			L2,110.9c-1.9-1.1-2.6-3.6-1.4-5.5c0.3-0.6,0.8-1.1,1.4-1.4l51.4-30l17.8,30.4c1.1,1.8,3.4,2.5,5.3,1.5l0.2-0.1l0.2-0.1
			c1.4-1,2.1-2.8,1.6-4.5L67.2,66l5.6-3.3C73.8,62.1,74.9,62.1,75.9,62.7z M79.7,131.3c-3.1-1.8-8.6-1.5-12.3,0.7l-6.7,3.9l15.7,9.1
			l4.5-2.6l-4.4-2.6l2.2-1.3C82.3,136.3,82.8,133.1,79.7,131.3z M71.1,134.1c1.2-0.7,3.1-0.8,4.1-0.2c1,0.6,0.9,1.7-0.4,2.4
			l-2.2,1.3l-3.7-2.2L71.1,134.1z M80.3,124.4l-4.5,2.6l15.7,9.1l4.5-2.6L80.3,124.4z M94.6,116.1l-4.5,2.6l6.6,3.8l-10-1.8
			l-4.7,2.7l15.7,9.1l4.5-2.6l-6.6-3.8l10,1.8l4.7-2.7L94.6,116.1z M125.4,98.1l-13.4,7.8l5.6,3.2l-8.4-1.6l-4.7,2.7l6.6,3.8
			l-10-1.8l-4.7,2.7l15.7,9.1l4.5-2.6l-6.6-3.8l10,1.8l4.7-2.7l-6.4-3.7l9,1.7l0.5,0.3l4.5-2.6l9-5.2l-3.7-2.2l-9,5.2l-2.3-1.4
			l9-5.2l-3.7-2.2l-9,5.2l-2.1-1.2l9-5.2L125.4,98.1z"/>
		<path class="st1" d="M92.6,0c0.2,0,0.4,0,0.7,0.1c2.2,0.4,3.6,2.4,3.3,4.6l-5.1,30.2c8.8,5.6,14.6,15.4,14.6,26.6V63L83,63
			l-4.4,40.1c-0.2,1.7-1.6,3.1-3.3,3.4l-0.2,0c-2.2,0.3-4.2-1.3-4.5-3.5L66.2,63H43.1v-1.5c0-11.2,5.8-21,14.6-26.6L52.6,4.7
			c0-0.2-0.1-0.4-0.1-0.7c0-2.2,1.8-4,4-4H92.6z"/>
	</g>
</g>
</svg>
