<svg width="172" height="54" viewBox="0 0 172 54" fill="none" xmlns="http://www.w3.org/2000/svg">
<g clip-path="url(#clip0_1576_32235)">
<mask id="mask0_1576_32235" style="mask-type:alpha" maskUnits="userSpaceOnUse" x="3" y="1" width="45" height="53">
<path d="M3.92773 43.1877V11.6076L25.5351 1.63501L47.1426 11.6076V43.1877L25.5351 53.1604L3.92773 43.1877Z" fill="#561E1E"/>
</mask>
<g mask="url(#mask0_1576_32235)">
<path d="M47.4533 10.4814L30.4315 17.1177C29.8129 17.3589 29.408 17.5157 29.0972 17.6055C28.8665 17.6722 28.7566 17.6796 28.7095 17.6778L28.681 17.6749C28.5225 17.6409 28.3812 17.5537 28.2801 17.4288L28.2392 17.3733C28.2304 17.3599 28.1819 17.2792 28.153 16.9599C28.1238 16.6377 28.123 16.2035 28.123 15.5395V-0.31604L47.4533 -0.316033V10.4814Z" fill="white" stroke="white" stroke-width="1.87947"/>
<path d="M47.4543 52.8403V34.39C47.4543 33.8466 47.4465 33.6449 47.4294 33.5436L47.409 33.4669C47.3791 33.3873 47.3354 33.3136 47.2797 33.25L47.2199 33.1894C47.1712 33.1457 47.1006 33.1033 46.7839 32.974L46.3757 32.8126L30.4296 26.5984C29.811 26.3574 29.406 26.2004 29.0953 26.1106C28.8647 26.044 28.7547 26.0365 28.7075 26.0383L28.679 26.0412C28.5206 26.0752 28.3792 26.1625 28.2781 26.2873L28.2372 26.3428C28.2284 26.3562 28.1799 26.437 28.151 26.7562C28.1218 27.0782 28.1211 27.5127 28.1211 28.1766V52.7051L28.1233 53.2967C28.1257 53.4585 28.1309 53.5893 28.1401 53.702C28.1488 53.8089 28.1601 53.8789 28.1708 53.9247L28.1971 54.0036C28.2473 54.1028 28.3201 54.1881 28.4089 54.2534L28.503 54.3118C28.5248 54.323 28.5904 54.3525 28.8039 54.3717C28.9166 54.3818 29.0475 54.3876 29.2093 54.3914L29.8 54.3987L45.7468 54.5339C46.2266 54.5379 46.5299 54.5397 46.7591 54.5229C46.8683 54.5149 46.9396 54.5035 46.9862 54.4929L47.065 54.4666C47.1654 54.4162 47.252 54.3431 47.3177 54.2534L47.3769 54.1577C47.3879 54.136 47.4168 54.0695 47.4346 53.8524C47.4439 53.738 47.4488 53.6048 47.4514 53.4405L47.4543 52.8403Z" fill="white" stroke="white" stroke-width="1.87947"/>
<path d="M48.394 29.0204V14.6887L30.0137 21.8548L48.394 29.0204Z" fill="white"/>
<path d="M3.58789 10.4814L20.6097 17.1177C21.2283 17.3589 21.6332 17.5157 21.9439 17.6055C22.1747 17.6722 22.2846 17.6796 22.3318 17.6778L22.3602 17.6749C22.5187 17.6409 22.6601 17.5537 22.7612 17.4288L22.8021 17.3733C22.8109 17.3599 22.8593 17.2792 22.8882 16.9599C22.9175 16.6377 22.9182 16.2035 22.9182 15.5395V-0.31604L3.58789 -0.316033V10.4814Z" fill="white" stroke="white" stroke-width="1.87947"/>
<path d="M3.625 52.7844V34.3743C3.625 33.8309 3.63284 33.6292 3.64983 33.5279L3.67028 33.4512C3.70021 33.3717 3.74385 33.2979 3.79954 33.2343L3.85943 33.1737C3.9081 33.13 3.97864 33.0876 4.29542 32.9583L4.70365 32.7961L20.6125 26.5973C21.231 26.3563 21.6361 26.1993 21.9467 26.1095C22.1773 26.0429 22.2874 26.0354 22.3345 26.0372L22.363 26.0401C22.5215 26.0741 22.6628 26.1614 22.7639 26.2862L22.8048 26.3417C22.8137 26.3551 22.8621 26.4359 22.891 26.7551C22.9202 27.0771 22.921 27.5112 22.921 28.1748V52.65L22.9187 53.2409C22.9163 53.4026 22.9111 53.5334 22.902 53.6461C22.8932 53.7534 22.882 53.8237 22.8713 53.8697L22.845 53.9478C22.7948 54.047 22.7221 54.133 22.6332 54.1983L22.539 54.256C22.5174 54.2671 22.4519 54.2966 22.2381 54.3159C22.1254 54.326 21.9946 54.3317 21.8328 54.3356L21.242 54.3436L5.33244 54.478C4.85264 54.4821 4.54944 54.4838 4.32025 54.467C4.21094 54.459 4.13969 54.4477 4.09312 54.4371L4.01425 54.4108C3.91389 54.3604 3.82735 54.2872 3.76157 54.1976L3.70241 54.1019C3.69133 54.0802 3.66253 54.0136 3.64472 53.7966C3.63533 53.6822 3.63046 53.549 3.62792 53.3847L3.625 52.7844Z" fill="white" stroke="white" stroke-width="1.87947"/>
<path d="M2.64844 29.0204V14.6887L21.0287 21.8548L2.64844 29.0204Z" fill="white"/>
</g>
<mask id="mask1_1576_32235" style="mask-type:luminance" maskUnits="userSpaceOnUse" x="61" y="9" width="111" height="43">
<path d="M172 9.03235H61.8203V51.7018H172V9.03235Z" fill="white"/>
</mask>
<g mask="url(#mask1_1576_32235)">
<path fill-rule="evenodd" clip-rule="evenodd" d="M96.1354 20.0044C98.1904 18.5198 100.714 17.6449 103.444 17.6449C110.344 17.6449 115.938 23.2388 115.938 30.1391C115.938 37.0395 110.344 42.6333 103.444 42.6333C100.714 42.6333 98.1904 41.7584 96.1354 40.2738V51.7775H90.9582V30.6137C90.9522 30.4562 90.9492 30.298 90.9492 30.1391C90.9492 29.9802 90.9522 29.822 90.9582 29.6646V18.2026H96.1354V20.0044ZM110.761 30.1391C110.761 34.1804 107.485 37.4565 103.444 37.4565C99.5238 37.4565 96.3246 34.3748 96.1354 30.5021V29.7761C96.3246 25.9034 99.5238 22.8216 103.444 22.8216C107.485 22.8216 110.761 26.0978 110.761 30.1391Z" fill="white"/>
<path d="M166.834 18.2026H172.01V42.1636H166.834V18.2026Z" fill="white"/>
<path d="M166.871 9.03235H172.048V14.2091H166.871V9.03235Z" fill="white"/>
<path d="M121.871 27.3728H141.247V32.5496H121.871V27.3728Z" fill="white"/>
<path d="M134.841 35.5078C133.536 36.7162 131.79 37.4549 129.871 37.4549C125.83 37.4549 122.553 34.1788 122.553 30.1375C122.553 26.0962 125.83 22.8201 129.871 22.8201C133.912 22.8201 137.188 26.0962 137.188 30.1375C137.188 30.9827 137.045 31.7943 136.782 32.5496H142.132C142.285 31.7691 142.365 30.9627 142.365 30.1375C142.365 23.2371 136.771 17.6433 129.871 17.6433C122.971 17.6433 117.377 23.2371 117.377 30.1375C117.377 37.0379 122.971 42.6317 129.871 42.6317C134.848 42.6317 139.147 39.7205 141.156 35.5078H134.841Z" fill="white"/>
<path d="M149.306 29.7085L140.668 18.2026H147.135L152.618 25.5072L158.378 18.2026H164.964L155.83 29.7859L165.121 42.1636H158.655L152.517 33.9872L146.07 42.1636H139.484L149.306 29.7085Z" fill="white"/>
<path d="M75.8137 42.6286C67.3802 42.6286 62.6324 38.8803 61.8203 33.1955H69.0045C69.6916 36.2566 72.0031 37.8183 75.7516 37.8183C79.5618 37.8183 81.9982 36.319 81.9982 33.3204C81.9982 30.5092 79.9993 29.6346 76.6887 28.9475L70.941 27.823C64.8189 26.636 62.5075 23.9498 62.5075 19.7642C62.5075 14.4542 67.6925 10.5186 75.626 10.5186C83.8723 10.5186 87.9958 14.2043 88.7451 19.8267H81.5608C80.8114 16.5782 78.6876 15.3288 75.3762 15.3288C72.0655 15.3288 69.3793 16.9531 69.3793 19.5144C69.3793 21.4509 70.6912 22.2631 73.7522 22.8877L79.8116 24.0123C85.7463 25.1368 89.1826 27.6355 89.1826 33.0081C89.1826 39.2551 83.7474 42.6286 75.8137 42.6286Z" fill="white"/>
</g>
</g>
<defs>
<clipPath id="clip0_1576_32235">
<rect width="172" height="52.3478" fill="white" transform="translate(0 0.82605)"/>
</clipPath>
</defs>
</svg>
