<svg width="18" height="15" viewBox="0 0 18 15" fill="none" xmlns="http://www.w3.org/2000/svg">
<path d="M16.9349 1.54061C16.601 1.20549 16.2041 0.939591 15.7672 0.758161C15.3303 0.57673 14.8618 0.483337 14.3887 0.483337C13.9156 0.483337 13.4471 0.57673 13.0102 0.758161C12.5732 0.939591 12.1764 1.20549 11.8425 1.54061L12.6932 2.39135C12.9162 2.1683 13.181 1.99137 13.4725 1.87065C13.7639 1.74994 14.0762 1.68781 14.3917 1.68781C14.7071 1.68781 15.0195 1.74994 15.3109 1.87065C15.6023 1.99137 15.8671 2.1683 16.0902 2.39135C16.3132 2.61439 16.4901 2.87919 16.6109 3.17062C16.7316 3.46204 16.7937 3.77439 16.7937 4.08983C16.7937 4.40526 16.7316 4.71761 16.6109 5.00904C16.4901 5.30046 16.3132 5.56526 16.0902 5.78831L11.2973 10.5812C10.8476 11.0317 10.2374 11.285 9.60091 11.2856C8.96442 11.2862 8.35377 11.0339 7.90331 10.5842C7.45284 10.1345 7.19946 9.52432 7.19889 8.88783C7.19833 8.25134 7.45064 7.64069 7.90031 7.19023L8.74506 6.33949L7.90031 5.48875L7.04957 6.33949C6.71445 6.67345 6.44855 7.07027 6.26712 7.50721C6.08569 7.94415 5.9923 8.41261 5.9923 8.88571C5.9923 9.35882 6.08569 9.82728 6.26712 10.2642C6.44855 10.7012 6.71445 11.098 7.04957 11.4319C7.72746 12.1011 8.64325 12.4739 9.59579 12.4684C10.0707 12.4704 10.5413 12.3782 10.9804 12.1972C11.4195 12.0162 11.8184 11.75 12.154 11.414L16.9469 6.62107C17.6185 5.94548 17.9944 5.03095 17.9922 4.07836C17.9899 3.12577 17.6097 2.21302 16.9349 1.54061Z" fill="#4E52F5"/>
<path d="M1.92118 12.3606C1.69747 12.1379 1.51995 11.8732 1.39882 11.5817C1.27769 11.2903 1.21533 10.9777 1.21533 10.6621C1.21533 10.3464 1.27769 10.0339 1.39882 9.74242C1.51995 9.45095 1.69747 9.18627 1.92118 8.9636L6.71407 4.17071C6.93674 3.94699 7.20142 3.76947 7.4929 3.64834C7.78437 3.52721 8.09691 3.46486 8.41255 3.46486C8.72819 3.46486 9.04073 3.52721 9.33221 3.64834C9.62368 3.76947 9.88836 3.94699 10.111 4.17071C10.3333 4.39513 10.5083 4.6619 10.6256 4.95519C10.743 5.24849 10.8002 5.56235 10.794 5.87817C10.7958 6.19499 10.7348 6.50902 10.6145 6.8021C10.4942 7.09518 10.317 7.3615 10.0931 7.58564L8.82294 8.87373L9.67368 9.72447L10.9438 8.45435C11.6199 7.77826 11.9997 6.86128 11.9997 5.90513C11.9997 4.94899 11.6199 4.03201 10.9438 3.35592C10.2677 2.67982 9.35072 2.29999 8.39458 2.29999C7.43843 2.29999 6.52145 2.67982 5.84536 3.35592L1.05247 8.14881C0.716448 8.48287 0.449788 8.88007 0.267825 9.31756C0.0858627 9.75505 -0.0078125 10.2242 -0.0078125 10.698C-0.0078125 11.1719 0.0858627 11.641 0.267825 12.0785C0.449788 12.516 0.716448 12.9132 1.05247 13.2472C1.73475 13.9113 2.65263 14.2776 3.60468 14.2657C4.56512 14.2667 5.48692 13.8876 6.16888 13.2113L5.31814 12.3606C5.09547 12.5843 4.83079 12.7618 4.53931 12.8829C4.24784 13.0041 3.9353 13.0664 3.61966 13.0664C3.30402 13.0664 2.99148 13.0041 2.7 12.8829C2.40853 12.7618 2.14385 12.5843 1.92118 12.3606Z" fill="#4E52F5"/>
</svg>
